solid pitft-case
facet normal 0.008725179442844996 -7.998899559261235e-06 0.9999619348653768
  outer loop
    vertex -1159.7626738487395 110.27957053406227 82.97798885398613
    vertex -1159.223002195504 110.33210317989965 82.97328036294562
    vertex -1159.4430343048368 110.34517982549866 82.97520036026627
  endloop
endfacet
facet normal 0.008725179442844996 -7.998899559261235e-06 0.9999619348653768
  outer loop
    vertex -1159.223002195504 110.33210317989965 82.97328036294562
    vertex -1159.7626738487395 110.27957053406227 82.97798885398613
    vertex -1159.1173059322723 110.32582158500227 82.97235805872893
  endloop
endfacet
facet normal 0.008725179442844996 -7.998899559261235e-06 0.9999619348653768
  outer loop
    vertex -1159.1173059322723 110.32582158500227 82.97235805872893
    vertex -1159.7626738487395 110.27957053406227 82.97798885398613
    vertex -1158.8076865813448 110.22281504466599 82.96965564752634
  endloop
endfacet
facet normal 0.008725179442844996 -7.998899559261235e-06 0.9999619348653768
  outer loop
    vertex -1158.8076865813448 110.22281504466599 82.96965564752634
    vertex -1159.7626738487395 110.27957053406227 82.97798885398613
    vertex -1160.054441657293 110.13346487547429 82.98053350864947
  endloop
endfacet
facet normal 0.008725179442844996 -7.998899559261235e-06 0.9999619348653768
  outer loop
    vertex -1158.8076865813448 110.22281504466599 82.96965564752634
    vertex -1160.054441657293 110.13346487547429 82.98053350864947
    vertex -1158.5352762991502 110.04317992999245 82.96727729151655
  endloop
endfacet
facet normal 0.008725179442844996 -7.998899559261235e-06 0.9999619348653768
  outer loop
    vertex -1158.5352762991502 110.04317992999245 82.96727729151655
    vertex -1160.054441657293 110.13346487547429 82.98053350864947
    vertex -1160.2984542365136 109.91681970891976 82.98266091024645
  endloop
endfacet
facet normal 0.008725179442844996 -7.998899559261235e-06 0.9999619348653768
  outer loop
    vertex -1158.5352762991502 110.04317992999245 82.96727729151655
    vertex -1160.2984542365136 109.91681970891976 82.98266091024645
    vertex -1158.318639396242 109.79915807718348 82.96538507173072
  endloop
endfacet
facet normal 0.008725179442844996 -7.998899559261235e-06 0.9999619348653768
  outer loop
    vertex -1158.318639396242 109.79915807718348 82.96538507173072
    vertex -1160.2984542365136 109.91681970891976 82.98266091024645
    vertex -1160.4780825323774 109.64439904447687 82.98422607987366
  endloop
endfacet
facet normal 0.008725179442844996 -7.998899559261235e-06 0.9999619348653768
  outer loop
    vertex -1158.318639396242 109.79915807718348 82.96538507173072
    vertex -1160.4780825323774 109.64439904447687 82.98422607987366
    vertex -1158.1725393195409 109.50737917224201 82.96410793982041
  endloop
endfacet
facet normal 0.008725179442844996 -7.998899559261235e-06 0.9999619348653768
  outer loop
    vertex -1158.1725393195409 109.50737917224201 82.96410793982041
    vertex -1160.4780825323774 109.64439904447687 82.98422607987366
    vertex -1160.5810851733704 109.33476790022968 82.98512235380787
  endloop
endfacet
facet normal 0.008725179442844996 -7.998899559261235e-06 0.9999619348653768
  outer loop
    vertex -1158.1725393195409 109.50737917224201 82.96410793982041
    vertex -1160.5810851733704 109.33476790022968 82.98512235380787
    vertex -1158.1069325478343 109.18772746535355 82.96353293021495
  endloop
endfacet
facet normal 0.008725179442844996 -7.998899559261235e-06 0.9999619348653768
  outer loop
    vertex -1158.1069325478343 109.18772746535355 82.96353293021495
    vertex -1160.5810851733704 109.33476790022968 82.98512235380787
    vertex -1160.6004426997295 109.00902712696713 82.9852886524614
  endloop
endfacet
facet normal 0.008725179442844996 -7.998899559261235e-06 0.9999619348653768
  outer loop
    vertex -1158.1069325478343 109.18772746535355 82.96353293021495
    vertex -1160.6004426997295 109.00902712696713 82.9852886524614
    vertex -1158.1262900741933 108.86198669209305 82.96369922886856
  endloop
endfacet
facet normal 0.008725179442844996 -7.998899559261235e-06 0.9999619348653768
  outer loop
    vertex -1158.1262900741933 108.86198669209305 82.96369922886856
    vertex -1160.6004426997295 109.00902712696713 82.9852886524614
    vertex -1160.5348359280229 108.68937542007892 82.98471364285581
  endloop
endfacet
facet normal 0.008725179442844996 -7.998899559261235e-06 0.9999619348653768
  outer loop
    vertex -1158.1262900741933 108.86198669209305 82.96369922886856
    vertex -1160.5348359280229 108.68937542007892 82.98471364285581
    vertex -1158.2292927151852 108.55235554784407 82.9645955028028
  endloop
endfacet
facet normal 0.008725179442844996 -7.998899559261235e-06 0.9999619348653768
  outer loop
    vertex -1158.2292927151852 108.55235554784407 82.9645955028028
    vertex -1160.5348359280229 108.68937542007892 82.98471364285581
    vertex -1160.388735851322 108.3975965151393 82.98343651094555
  endloop
endfacet
facet normal 0.008725179442844996 -7.998899559261235e-06 0.9999619348653768
  outer loop
    vertex -1158.2292927151852 108.55235554784407 82.9645955028028
    vertex -1160.388735851322 108.3975965151393 82.98343651094555
    vertex -1158.408921011049 108.2799348834015 82.96616067243008
  endloop
endfacet
facet normal 0.008725179442844996 -7.998899559261235e-06 0.9999619348653768
  outer loop
    vertex -1158.408921011049 108.2799348834015 82.96616067243008
    vertex -1160.388735851322 108.3975965151393 82.98343651094555
    vertex -1160.1720989484124 108.1535746623297 82.98154429115999
  endloop
endfacet
facet normal 0.008725179442844996 -7.998899559261235e-06 0.9999619348653768
  outer loop
    vertex -1158.408921011049 108.2799348834015 82.96616067243008
    vertex -1160.1720989484124 108.1535746623297 82.98154429115999
    vertex -1158.6529335902694 108.06328971684623 82.96828807402684
  endloop
endfacet
facet normal 0.008725179442844996 -7.998899559261235e-06 0.9999619348653768
  outer loop
    vertex -1158.6529335902694 108.06328971684623 82.96828807402684
    vertex -1160.1720989484124 108.1535746623297 82.98154429115999
    vertex -1159.8996886662178 107.97393954765369 82.97916593514998
  endloop
endfacet
facet normal 0.008725179442844996 -7.998899559261235e-06 0.9999619348653768
  outer loop
    vertex -1158.6529335902694 108.06328971684623 82.96828807402684
    vertex -1159.8996886662178 107.97393954765369 82.97916593514998
    vertex -1158.944701398823 107.91718405825992 82.97083272869047
  endloop
endfacet
facet normal 0.008725179442844996 -7.998899559261235e-06 0.9999619348653768
  outer loop
    vertex -1158.944701398823 107.91718405825992 82.97083272869047
    vertex -1159.8996886662178 107.97393954765369 82.97916593514998
    vertex -1159.5900693152903 107.87093300731969 82.9764635239477
  endloop
endfacet
facet normal 0.008725179442844996 -7.998899559261235e-06 0.9999619348653768
  outer loop
    vertex -1158.944701398823 107.91718405825992 82.97083272869047
    vertex -1159.5900693152903 107.87093300731969 82.9764635239477
    vertex -1159.4843730520574 107.86465141242125 82.97554121973086
  endloop
endfacet
facet normal 0.008725179442844996 -7.998899559261235e-06 0.9999619348653768
  outer loop
    vertex -1158.944701398823 107.91718405825992 82.97083272869047
    vertex -1159.4843730520574 107.86465141242125 82.97554121973086
    vertex -1159.264340942726 107.85157476682168 82.97362122241019
  endloop
endfacet
facet normal 0.5504743310392542 0.834838310411268 -0.004796492108322287
  outer loop
    vertex -1158.8076865813448 110.22281504466599 82.96965564752634
    vertex -1158.5658144272002 110.04320792614104 79.46741051948781
    vertex -1158.8382247093948 110.22284304081444 79.4697888754978
  endloop
endfacet
facet normal 0.5504743310392542 0.834838310411268 -0.004796492108322287
  outer loop
    vertex -1158.5658144272002 110.04320792614104 79.46741051948781
    vertex -1158.8076865813448 110.22281504466599 82.96965564752634
    vertex -1158.5352762991502 110.04317992999245 82.96727729151655
  endloop
endfacet
facet normal 0.9795414650999498 0.20106092217089902 -0.008545392070082862
  outer loop
    vertex -1158.203077447591 109.5074071683895 79.4642411677918
    vertex -1158.1069325478343 109.18772746535355 82.96353293021495
    vertex -1158.1374706758845 109.18775546150069 79.46366615818621
  endloop
endfacet
facet normal 0.9795414650999498 0.20106092217089902 -0.008545392070082862
  outer loop
    vertex -1158.1069325478343 109.18772746535355 82.96353293021495
    vertex -1158.203077447591 109.5074071683895 79.4642411677918
    vertex -1158.1725393195409 109.50737917224201 82.96410793982041
  endloop
endfacet
facet normal 0.6638879116138657 -0.7478096117236702 -0.005798743542693707
  outer loop
    vertex -1158.439459139099 108.27996287954959 79.46629390040113
    vertex -1158.6529335902694 108.06328971684623 82.96828807402684
    vertex -1158.6834717183194 108.06331771299591 79.46842130199828
  endloop
endfacet
facet normal 0.6638879116138657 -0.7478096117236702 -0.005798743542693707
  outer loop
    vertex -1158.6529335902694 108.06328971684623 82.96828807402684
    vertex -1158.439459139099 108.27996287954959 79.46629390040113
    vertex -1158.408921011049 108.2799348834015 82.96616067243008
  endloop
endfacet
facet normal -0.9795414650999498 -0.20106092217089902 0.008545392070082862
  outer loop
    vertex -1160.5348359280229 108.68937542007892 82.98471364285581
    vertex -1160.6309808277795 109.0090551231146 79.48542188043251
    vertex -1160.5653740560729 108.68940341622606 79.48484687082706
  endloop
endfacet
facet normal -0.9795414650999498 -0.20106092217089902 0.008545392070082862
  outer loop
    vertex -1160.6309808277795 109.0090551231146 79.48542188043251
    vertex -1160.5348359280229 108.68937542007892 82.98471364285581
    vertex -1160.6004426997295 109.00902712696713 82.9852886524614
  endloop
endfacet
facet normal -0.9982007964049889 0.059323696396887136 0.008710287151166337
  outer loop
    vertex -1160.6309808277795 109.0090551231146 79.48542188043251
    vertex -1160.5810851733704 109.33476790022968 82.98512235380787
    vertex -1160.6116233014207 109.3347958963781 79.48525558177906
  endloop
endfacet
facet normal -0.9982007964049889 0.059323696396887136 0.008710287151166337
  outer loop
    vertex -1160.5810851733704 109.33476790022968 82.98512235380787
    vertex -1160.6309808277795 109.0090551231146 79.48542188043251
    vertex -1160.6004426997295 109.00902712696713 82.9852886524614
  endloop
endfacet
facet normal 0.8348064938118979 -0.5504952274141338 -0.007288517252983538
  outer loop
    vertex -1158.2292927151852 108.55235554784407 82.9645955028028
    vertex -1158.439459139099 108.27996287954959 79.46629390040113
    vertex -1158.259830843235 108.55238354399413 79.4647287307739
  endloop
endfacet
facet normal 0.8348064938118979 -0.5504952274141338 -0.007288517252983538
  outer loop
    vertex -1158.439459139099 108.27996287954959 79.46629390040113
    vertex -1158.2292927151852 108.55235554784407 82.9645955028028
    vertex -1158.408921011049 108.2799348834015 82.96616067243008
  endloop
endfacet
facet normal -0.9488343930398364 0.3156655030923816 0.008281590557328413
  outer loop
    vertex -1160.6116233014207 109.3347958963781 79.48525558177906
    vertex -1160.4780825323774 109.64439904447687 82.98422607987366
    vertex -1160.5086206604274 109.64442704062478 79.48435930784494
  endloop
endfacet
facet normal -0.9488343930398364 0.3156655030923816 0.008281590557328413
  outer loop
    vertex -1160.4780825323774 109.64439904447687 82.98422607987366
    vertex -1160.6116233014207 109.3347958963781 79.48525558177906
    vertex -1160.5810851733704 109.33476790022968 82.98512235380787
  endloop
endfacet
facet normal -0.20105320040628488 0.979578738801394 0.0017621278786798026
  outer loop
    vertex -1159.7626738487395 110.27957053406227 82.97798885398613
    vertex -1159.4735724328866 110.34520782164849 79.47533358823746
    vertex -1159.7932119767893 110.27959853021001 79.47812208195724
  endloop
endfacet
facet normal -0.20105320040628488 0.979578738801394 0.0017621278786798026
  outer loop
    vertex -1159.4735724328866 110.34520782164849 79.47533358823746
    vertex -1159.7626738487395 110.27957053406227 82.97798885398613
    vertex -1159.4430343048368 110.34517982549866 82.97520036026627
  endloop
endfacet
facet normal 0.8941280017171425 0.4477435711617251 -0.007798142641349817
  outer loop
    vertex -1158.349177524292 109.79918607333225 79.46551829970198
    vertex -1158.1725393195409 109.50737917224201 82.96410793982041
    vertex -1158.203077447591 109.5074071683895 79.4642411677918
  endloop
endfacet
facet normal 0.8941280017171425 0.4477435711617251 -0.007798142641349817
  outer loop
    vertex -1158.1725393195409 109.50737917224201 82.96410793982041
    vertex -1158.349177524292 109.79918607333225 79.46551829970198
    vertex -1158.318639396242 109.79915807718348 82.96538507173072
  endloop
endfacet
facet normal -0.7477811926337039 -0.6639132357090777 0.006519462678649951
  outer loop
    vertex -1160.1720989484124 108.1535746623297 82.98154429115999
    vertex -1160.419273979372 108.39762451128608 79.48356973891701
    vertex -1160.2026370764625 108.15360265847653 79.48167751913103
  endloop
endfacet
facet normal -0.7477811926337039 -0.6639132357090777 0.006519462678649951
  outer loop
    vertex -1160.419273979372 108.39762451128608 79.48356973891701
    vertex -1160.1720989484124 108.1535746623297 82.98154429115999
    vertex -1160.388735851322 108.3975965151393 82.98343651094555
  endloop
endfacet
facet normal -0.31565355348608715 -0.9488705338946262 0.002746648527388388
  outer loop
    vertex -1159.6206074433403 107.8709610034676 79.47659675191876
    vertex -1159.8996886662178 107.97393954765369 82.97916593514998
    vertex -1159.9302267942678 107.97396754380371 79.47929916312131
  endloop
endfacet
facet normal -0.31565355348608715 -0.9488705338946262 0.002746648527388388
  outer loop
    vertex -1159.8996886662178 107.97393954765369 82.97916593514998
    vertex -1159.6206074433403 107.8709610034676 79.47659675191876
    vertex -1159.5900693152903 107.87093300731969 82.9764635239477
  endloop
endfacet
facet normal -0.4477264653657057 0.8941620068083267 0.003913795042844408
  outer loop
    vertex -1160.054441657293 110.13346487547429 82.98053350864947
    vertex -1159.7932119767893 110.27959853021001 79.47812208195724
    vertex -1160.0849797853432 110.1334928716229 79.4806667366208
  endloop
endfacet
facet normal -0.4477264653657057 0.8941620068083267 0.003913795042844408
  outer loop
    vertex -1159.7932119767893 110.27959853021001 79.47812208195724
    vertex -1160.054441657293 110.13346487547429 82.98053350864947
    vertex -1159.7626738487395 110.27957053406227 82.97798885398613
  endloop
endfacet
facet normal -0.8941280017171425 -0.4477435711617251 0.007798142641349817
  outer loop
    vertex -1160.388735851322 108.3975965151393 82.98343651094555
    vertex -1160.5653740560729 108.68940341622606 79.48484687082706
    vertex -1160.419273979372 108.39762451128608 79.48356973891701
  endloop
endfacet
facet normal -0.8941280017171425 -0.4477435711617251 0.007798142641349817
  outer loop
    vertex -1160.5653740560729 108.68940341622606 79.48484687082706
    vertex -1160.388735851322 108.3975965151393 82.98343651094555
    vertex -1160.5348359280229 108.68937542007892 82.98471364285581
  endloop
endfacet
facet normal -0.059321507905499386 -0.9982387985756621 0.0005096253883996549
  outer loop
    vertex -1159.5149111801074 107.8646794085697 79.47567444770227
    vertex -1159.5900693152903 107.87093300731969 82.9764635239477
    vertex -1159.6206074433403 107.8709610034676 79.47659675191876
  endloop
endfacet
facet normal -0.059321507905499386 -0.9982387985756621 0.0005096253883996549
  outer loop
    vertex -1159.5900693152903 107.87093300731969 82.9764635239477
    vertex -1159.5149111801074 107.8646794085697 79.47567444770227
    vertex -1159.4843730520574 107.86465141242125 82.97554121973086
  endloop
endfacet
facet normal -0.059321507905499386 -0.9982387985756621 0.0005096253883996549
  outer loop
    vertex -1159.4843730520574 107.86465141242125 82.97554121973086
    vertex -1159.5149111801074 107.8646794085697 79.47567444770227
    vertex -1159.2948790707758 107.85160276296996 79.47375445038136
  endloop
endfacet
facet normal -0.059321507905499386 -0.9982387985756621 0.0005096253883996549
  outer loop
    vertex -1159.4843730520574 107.86465141242125 82.97554121973086
    vertex -1159.2948790707758 107.85160276296996 79.47375445038136
    vertex -1159.264340942726 107.85157476682168 82.97362122241019
  endloop
endfacet
facet normal 0.9982007964049889 -0.059323696396887136 -0.008710287151166337
  outer loop
    vertex -1158.1069325478343 109.18772746535355 82.96353293021495
    vertex -1158.1568282022433 108.8620146882386 79.46383245684004
    vertex -1158.1374706758845 109.18775546150069 79.46366615818621
  endloop
endfacet
facet normal 0.9982007964049889 -0.059323696396887136 -0.008710287151166337
  outer loop
    vertex -1158.1568282022433 108.8620146882386 79.46383245684004
    vertex -1158.1069325478343 109.18772746535355 82.96353293021495
    vertex -1158.1262900741933 108.86198669209305 82.96369922886856
  endloop
endfacet
facet normal -0.8348064938118979 0.5504952274141338 0.007288517252983538
  outer loop
    vertex -1160.5086206604274 109.64442704062478 79.48435930784494
    vertex -1160.2984542365136 109.91681970891976 82.98266091024645
    vertex -1160.3289923645636 109.91684770506839 79.4827941382176
  endloop
endfacet
facet normal -0.8348064938118979 0.5504952274141338 0.007288517252983538
  outer loop
    vertex -1160.2984542365136 109.91681970891976 82.98266091024645
    vertex -1160.5086206604274 109.64442704062478 79.48435930784494
    vertex -1160.4780825323774 109.64439904447687 82.98422607987366
  endloop
endfacet
facet normal 0.20105320040628488 -0.979578738801394 -0.0017621278786798026
  outer loop
    vertex -1158.9752395268729 107.91721205440851 79.47096595666144
    vertex -1159.264340942726 107.85157476682168 82.97362122241019
    vertex -1159.2948790707758 107.85160276296996 79.47375445038136
  endloop
endfacet
facet normal 0.20105320040628488 -0.979578738801394 -0.0017621278786798026
  outer loop
    vertex -1159.264340942726 107.85157476682168 82.97362122241019
    vertex -1158.9752395268729 107.91721205440851 79.47096595666144
    vertex -1158.944701398823 107.91718405825992 82.97083272869047
  endloop
endfacet
facet normal -0.6638879116138657 0.7478096117236702 0.005798743542693707
  outer loop
    vertex -1160.2984542365136 109.91681970891976 82.98266091024645
    vertex -1160.0849797853432 110.1334928716229 79.4806667366208
    vertex -1160.3289923645636 109.91684770506839 79.4827941382176
  endloop
endfacet
facet normal -0.6638879116138657 0.7478096117236702 0.005798743542693707
  outer loop
    vertex -1160.0849797853432 110.1334928716229 79.4806667366208
    vertex -1160.2984542365136 109.91681970891976 82.98266091024645
    vertex -1160.054441657293 110.13346487547429 82.98053350864947
  endloop
endfacet
facet normal 0.4477264653657057 -0.8941620068083267 -0.003913795042844408
  outer loop
    vertex -1158.6834717183194 108.06331771299591 79.46842130199828
    vertex -1158.944701398823 107.91718405825992 82.97083272869047
    vertex -1158.9752395268729 107.91721205440851 79.47096595666144
  endloop
endfacet
facet normal 0.4477264653657057 -0.8941620068083267 -0.003913795042844408
  outer loop
    vertex -1158.944701398823 107.91718405825992 82.97083272869047
    vertex -1158.6834717183194 108.06331771299591 79.46842130199828
    vertex -1158.6529335902694 108.06328971684623 82.96828807402684
  endloop
endfacet
facet normal -0.5504743310392542 -0.834838310411268 0.004796492108322287
  outer loop
    vertex -1159.9302267942678 107.97396754380371 79.47929916312131
    vertex -1160.1720989484124 108.1535746623297 82.98154429115999
    vertex -1160.2026370764625 108.15360265847653 79.48167751913103
  endloop
endfacet
facet normal -0.5504743310392542 -0.834838310411268 0.004796492108322287
  outer loop
    vertex -1160.1720989484124 108.1535746623297 82.98154429115999
    vertex -1159.9302267942678 107.97396754380371 79.47929916312131
    vertex -1159.8996886662178 107.97393954765369 82.97916593514998
  endloop
endfacet
facet normal 0.7477811926337039 0.6639132357090777 -0.006519462678649951
  outer loop
    vertex -1158.5658144272002 110.04320792614104 79.46741051948781
    vertex -1158.318639396242 109.79915807718348 82.96538507173072
    vertex -1158.349177524292 109.79918607333225 79.46551829970198
  endloop
endfacet
facet normal 0.7477811926337039 0.6639132357090777 -0.006519462678649951
  outer loop
    vertex -1158.318639396242 109.79915807718348 82.96538507173072
    vertex -1158.5658144272002 110.04320792614104 79.46741051948781
    vertex -1158.5352762991502 110.04317992999245 82.96727729151655
  endloop
endfacet
facet normal 0.9488343930398364 -0.3156655030923816 -0.008281590557328413
  outer loop
    vertex -1158.1262900741933 108.86198669209305 82.96369922886856
    vertex -1158.259830843235 108.55238354399413 79.4647287307739
    vertex -1158.1568282022433 108.8620146882386 79.46383245684004
  endloop
endfacet
facet normal 0.9488343930398364 -0.3156655030923816 -0.008281590557328413
  outer loop
    vertex -1158.259830843235 108.55238354399413 79.4647287307739
    vertex -1158.1262900741933 108.86198669209305 82.96369922886856
    vertex -1158.2292927151852 108.55235554784407 82.9645955028028
  endloop
endfacet
facet normal -0.008725179442835952 7.99889962774901e-06 -0.9999619348653768
  outer loop
    vertex -1159.0620165631617 110.81683529558589 78.47170825879108
    vertex -1159.8984832165786 110.77379907750934 78.47900651400678
    vertex -1159.4828625583452 110.84610183946528 78.47538058950478
  endloop
endfacet
facet normal -0.008725179442835952 7.99889962774901e-06 -0.9999619348653768
  outer loop
    vertex -1159.8984832165786 110.77379907750934 78.47900651400678
    vertex -1159.0620165631617 110.81683529558589 78.47170825879108
    vertex -1158.6604032705554 110.68770031102319 78.46820294437845
  endloop
endfacet
facet normal -0.008725179442835952 7.99889962774901e-06 -0.9999619348653768
  outer loop
    vertex -1159.8984832165786 110.77379907750934 78.47900651400678
    vertex -1158.6604032705554 110.68770031102319 78.46820294437845
    vertex -1160.2847241759252 110.60412898343301 78.48237530674473
  endloop
endfacet
facet normal -0.008725179442835952 7.99889962774901e-06 -0.9999619348653768
  outer loop
    vertex -1160.2847241759252 110.60412898343301 78.48237530674473
    vertex -1158.6604032705554 110.68770031102319 78.46820294437845
    vertex -1158.3013629852883 110.46620174169011 78.46506836239914
  endloop
endfacet
facet normal -0.008725179442835952 7.99889962774901e-06 -0.9999619348653768
  outer loop
    vertex -1160.2847241759252 110.60412898343301 78.48237530674473
    vertex -1158.3013629852883 110.46620174169011 78.46506836239914
    vertex -1160.6191385157567 110.34695216637967 78.4852911857298
  endloop
endfacet
facet normal -0.008725179442835952 7.99889962774901e-06 -0.9999619348653768
  outer loop
    vertex -1160.6191385157567 110.34695216637967 78.4852911857298
    vertex -1158.3013629852883 110.46620174169011 78.46506836239914
    vertex -1158.0057618236808 110.16521227932563 78.46248668336415
  endloop
endfacet
facet normal -0.008725179442835952 7.99889962774901e-06 -0.9999619348653768
  outer loop
    vertex -1160.6191385157567 110.34695216637967 78.4852911857298
    vertex -1158.0057618236808 110.16521227932563 78.46248668336415
    vertex -1160.8822912901887 110.01721480815426 78.48758469067417
  endloop
endfacet
facet normal -0.008725179442835952 7.99889962774901e-06 -0.9999619348653768
  outer loop
    vertex -1160.8822912901887 110.01721480815426 78.48758469067417
    vertex -1158.0057618236808 110.16521227932563 78.46248668336415
    vertex -1157.7907790507793 109.80222433742763 78.46060794507493
  endloop
endfacet
facet normal -0.008725179442835952 7.99889962774901e-06 -0.9999619348653768
  outer loop
    vertex -1160.8822912901887 110.01721480815426 78.48758469067417
    vertex -1157.7907790507793 109.80222433742763 78.46060794507493
    vertex -1161.0588890164922 109.63408004547188 78.48912253140693
  endloop
endfacet
facet normal -0.008725179442835952 7.99889962774901e-06 -0.9999619348653768
  outer loop
    vertex -1161.0588890164922 109.63408004547188 78.48912253140693
    vertex -1157.7907790507793 109.80222433742763 78.46060794507493
    vertex -1157.6689086839144 109.39833345577036 78.45954133297191
  endloop
endfacet
facet normal -0.008725179442835952 7.99889962774901e-06 -0.9999619348653768
  outer loop
    vertex -1161.0588890164922 109.63408004547188 78.48912253140693
    vertex -1157.6689086839144 109.39833345577036 78.45954133297191
    vertex -1161.1386684767217 109.2198142781004 78.48981533421464
  endloop
endfacet
facet normal -0.008725179442835952 7.99889962774901e-06 -0.9999619348653768
  outer loop
    vertex -1161.1386684767217 109.2198142781004 78.48981533421464
    vertex -1157.6689086839144 109.39833345577036 78.45954133297191
    vertex -1157.647233385827 108.97701230431814 78.45934883467355
  endloop
endfacet
facet normal -0.008725179442835952 7.99889962774901e-06 -0.9999619348653768
  outer loop
    vertex -1161.1386684767217 109.2198142781004 78.48981533421464
    vertex -1157.647233385827 108.97701230431814 78.45934883467355
    vertex -1161.1169931786349 108.79849312664729 78.48962283591626
  endloop
endfacet
facet normal -0.008725179442835952 7.99889962774901e-06 -0.9999619348653768
  outer loop
    vertex -1161.1169931786349 108.79849312664729 78.48962283591626
    vertex -1157.647233385827 108.97701230431814 78.45934883467355
    vertex -1157.7270128460568 108.56274653694744 78.46004163748124
  endloop
endfacet
facet normal -0.008725179442835952 7.99889962774901e-06 -0.9999619348653768
  outer loop
    vertex -1161.1169931786349 108.79849312664729 78.48962283591626
    vertex -1157.7270128460568 108.56274653694744 78.46004163748124
    vertex -1160.9951228117698 108.39460224499098 78.48855622381325
  endloop
endfacet
facet normal -0.008725179442835952 7.99889962774901e-06 -0.9999619348653768
  outer loop
    vertex -1160.9951228117698 108.39460224499098 78.48855622381325
    vertex -1157.7270128460568 108.56274653694744 78.46004163748124
    vertex -1157.9036105723599 108.17961177426436 78.46157947821406
  endloop
endfacet
facet normal -0.008725179442835952 7.99889962774901e-06 -0.9999619348653768
  outer loop
    vertex -1160.9951228117698 108.39460224499098 78.48855622381325
    vertex -1157.9036105723599 108.17961177426436 78.46157947821406
    vertex -1160.780140038868 108.03161430309368 78.48667748552407
  endloop
endfacet
facet normal -0.008725179442835952 7.99889962774901e-06 -0.9999619348653768
  outer loop
    vertex -1160.780140038868 108.03161430309368 78.48667748552407
    vertex -1157.9036105723599 108.17961177426436 78.46157947821406
    vertex -1158.1667633467923 107.84987441603992 78.46387298315837
  endloop
endfacet
facet normal -0.008725179442835952 7.99889962774901e-06 -0.9999619348653768
  outer loop
    vertex -1160.780140038868 108.03161430309368 78.48667748552407
    vertex -1158.1667633467923 107.84987441603992 78.46387298315837
    vertex -1160.4845388772605 107.73062484072844 78.48409580648905
  endloop
endfacet
facet normal -0.008725179442835952 7.99889962774901e-06 -0.9999619348653768
  outer loop
    vertex -1160.4845388772605 107.73062484072844 78.48409580648905
    vertex -1158.1667633467923 107.84987441603992 78.46387298315837
    vertex -1158.501177686623 107.59269759898535 78.46678886214343
  endloop
endfacet
facet normal -0.008725179442835952 7.99889962774901e-06 -0.9999619348653768
  outer loop
    vertex -1160.4845388772605 107.73062484072844 78.48409580648905
    vertex -1158.501177686623 107.59269759898535 78.46678886214343
    vertex -1160.1254985919925 107.50912627139519 78.4809612245098
  endloop
endfacet
facet normal -0.008725179442835952 7.99889962774901e-06 -0.9999619348653768
  outer loop
    vertex -1160.1254985919925 107.50912627139519 78.4809612245098
    vertex -1158.501177686623 107.59269759898535 78.46678886214343
    vertex -1158.8874186459698 107.42302750490845 78.47015765488142
  endloop
endfacet
facet normal -0.008725179442835952 7.99889962774901e-06 -0.9999619348653768
  outer loop
    vertex -1160.1254985919925 107.50912627139519 78.4809612245098
    vertex -1158.8874186459698 107.42302750490845 78.47015765488142
    vertex -1159.7238852993867 107.37999128683256 78.47745591009712
  endloop
endfacet
facet normal -0.008725179442835952 7.99889962774901e-06 -0.9999619348653768
  outer loop
    vertex -1159.7238852993867 107.37999128683256 78.47745591009712
    vertex -1158.8874186459698 107.42302750490845 78.47015765488142
    vertex -1159.3030393042034 107.35072474295245 78.47378357938341
  endloop
endfacet
facet normal 0.00872517944283506 -7.998899630729258e-06 0.9999619348653768
  outer loop
    vertex -1160.610413336314 110.34694416748 79.4852531205952
    vertex -1159.7932119767893 110.27959853021001 79.47812208195724
    vertex -1159.4735724328866 110.34520782164849 79.47533358823746
  endloop
endfacet
facet normal 0.00872517944283506 -7.998899630729258e-06 0.9999619348653768
  outer loop
    vertex -1159.7932119767893 110.27959853021001 79.47812208195724
    vertex -1160.610413336314 110.34694416748 79.4852531205952
    vertex -1160.8735661107457 110.01720680925476 79.48754662553952
  endloop
endfacet
facet normal 0.00872517944283506 -7.998899630729258e-06 0.9999619348653768
  outer loop
    vertex -1159.7932119767893 110.27959853021001 79.47812208195724
    vertex -1160.8735661107457 110.01720680925476 79.48754662553952
    vertex -1160.0849797853432 110.1334928716229 79.4806667366208
  endloop
endfacet
facet normal 0.00872517944283506 -7.998899630729258e-06 0.9999619348653768
  outer loop
    vertex -1160.0849797853432 110.1334928716229 79.4806667366208
    vertex -1160.8735661107457 110.01720680925476 79.48754662553952
    vertex -1160.3289923645636 109.91684770506839 79.4827941382176
  endloop
endfacet
facet normal 0.00872517944283506 -7.998899630729258e-06 0.9999619348653768
  outer loop
    vertex -1160.3289923645636 109.91684770506839 79.4827941382176
    vertex -1160.8735661107457 110.01720680925476 79.48754662553952
    vertex -1161.0501638370495 109.63407204657248 79.48908446627236
  endloop
endfacet
facet normal 0.00872517944283506 -7.998899630729258e-06 0.9999619348653768
  outer loop
    vertex -1160.3289923645636 109.91684770506839 79.4827941382176
    vertex -1161.0501638370495 109.63407204657248 79.48908446627236
    vertex -1160.5086206604274 109.64442704062478 79.48435930784494
  endloop
endfacet
facet normal 0.00872517944283506 -7.998899630729258e-06 0.9999619348653768
  outer loop
    vertex -1160.5086206604274 109.64442704062478 79.48435930784494
    vertex -1161.0501638370495 109.63407204657248 79.48908446627236
    vertex -1160.6116233014207 109.3347958963781 79.48525558177906
  endloop
endfacet
facet normal 0.00872517944283506 -7.998899630729258e-06 0.9999619348653768
  outer loop
    vertex -1160.6116233014207 109.3347958963781 79.48525558177906
    vertex -1161.0501638370495 109.63407204657248 79.48908446627236
    vertex -1161.129943297279 109.21980627920048 79.48977726908001
  endloop
endfacet
facet normal 0.00872517944283506 -7.998899630729258e-06 0.9999619348653768
  outer loop
    vertex -1160.6116233014207 109.3347958963781 79.48525558177906
    vertex -1161.129943297279 109.21980627920048 79.48977726908001
    vertex -1160.6309808277795 109.0090551231146 79.48542188043251
  endloop
endfacet
facet normal 0.00872517944283506 -7.998899630729258e-06 0.9999619348653768
  outer loop
    vertex -1160.6309808277795 109.0090551231146 79.48542188043251
    vertex -1161.129943297279 109.21980627920048 79.48977726908001
    vertex -1161.1082679991919 108.79848512774768 79.48958477078165
  endloop
endfacet
facet normal 0.00872517944283506 -7.998899630729258e-06 0.9999619348653768
  outer loop
    vertex -1160.6309808277795 109.0090551231146 79.48542188043251
    vertex -1161.1082679991919 108.79848512774768 79.48958477078165
    vertex -1160.5653740560729 108.68940341622606 79.48484687082706
  endloop
endfacet
facet normal 0.00872517944283506 -7.998899630729258e-06 0.9999619348653768
  outer loop
    vertex -1160.5653740560729 108.68940341622606 79.48484687082706
    vertex -1161.1082679991919 108.79848512774768 79.48958477078165
    vertex -1160.986397632327 108.39459424609122 79.48851815867863
  endloop
endfacet
facet normal 0.00872517944283506 -7.998899630729258e-06 0.9999619348653768
  outer loop
    vertex -1160.5653740560729 108.68940341622606 79.48484687082706
    vertex -1160.986397632327 108.39459424609122 79.48851815867863
    vertex -1160.419273979372 108.39762451128608 79.48356973891701
  endloop
endfacet
facet normal 0.00872517944283506 -7.998899630729258e-06 0.9999619348653768
  outer loop
    vertex -1160.419273979372 108.39762451128608 79.48356973891701
    vertex -1160.986397632327 108.39459424609122 79.48851815867863
    vertex -1160.2026370764625 108.15360265847653 79.48167751913103
  endloop
endfacet
facet normal 0.00872517944283506 -7.998899630729258e-06 0.9999619348653768
  outer loop
    vertex -1160.2026370764625 108.15360265847653 79.48167751913103
    vertex -1160.986397632327 108.39459424609122 79.48851815867863
    vertex -1160.7714148594255 108.03160630419396 79.48663942038941
  endloop
endfacet
facet normal 0.00872517944283506 -7.998899630729258e-06 0.9999619348653768
  outer loop
    vertex -1160.2026370764625 108.15360265847653 79.48167751913103
    vertex -1160.7714148594255 108.03160630419396 79.48663942038941
    vertex -1159.9302267942678 107.97396754380371 79.47929916312131
  endloop
endfacet
facet normal 0.00872517944283506 -7.998899630729258e-06 0.9999619348653768
  outer loop
    vertex -1159.9302267942678 107.97396754380371 79.47929916312131
    vertex -1160.7714148594255 108.03160630419396 79.48663942038941
    vertex -1160.4758136978176 107.73061684182873 79.48405774135443
  endloop
endfacet
facet normal 0.00872517944283506 -7.998899630729258e-06 0.9999619348653768
  outer loop
    vertex -1159.9302267942678 107.97396754380371 79.47929916312131
    vertex -1160.4758136978176 107.73061684182873 79.48405774135443
    vertex -1159.6206074433403 107.8709610034676 79.47659675191876
  endloop
endfacet
facet normal 0.00872517944283506 -7.998899630729258e-06 0.9999619348653768
  outer loop
    vertex -1159.6206074433403 107.8709610034676 79.47659675191876
    vertex -1160.4758136978176 107.73061684182873 79.48405774135443
    vertex -1159.5149111801074 107.8646794085697 79.47567444770227
  endloop
endfacet
facet normal 0.00872517944283506 -7.998899630729258e-06 0.9999619348653768
  outer loop
    vertex -1159.5149111801074 107.8646794085697 79.47567444770227
    vertex -1160.4758136978176 107.73061684182873 79.48405774135443
    vertex -1159.2948790707758 107.85160276296996 79.47375445038136
  endloop
endfacet
facet normal 0.00872517944283506 -7.998899630729258e-06 0.9999619348653768
  outer loop
    vertex -1159.2948790707758 107.85160276296996 79.47375445038136
    vertex -1160.4758136978176 107.73061684182873 79.48405774135443
    vertex -1158.1580381673496 107.84986641714015 79.46383491802374
  endloop
endfacet
facet normal 0.00872517944283506 -7.998899630729258e-06 0.9999619348653768
  outer loop
    vertex -1158.1580381673496 107.84986641714015 79.46383491802374
    vertex -1160.4758136978176 107.73061684182873 79.48405774135443
    vertex -1158.4924525071795 107.59268960008583 79.4667507970088
  endloop
endfacet
facet normal 0.00872517944283506 -7.998899630729258e-06 0.9999619348653768
  outer loop
    vertex -1158.4924525071795 107.59268960008583 79.4667507970088
    vertex -1160.4758136978176 107.73061684182873 79.48405774135443
    vertex -1160.1167734125502 107.50911827249567 79.48092315937517
  endloop
endfacet
facet normal 0.00872517944283506 -7.998899630729258e-06 0.9999619348653768
  outer loop
    vertex -1158.4924525071795 107.59268960008583 79.4667507970088
    vertex -1160.1167734125502 107.50911827249567 79.48092315937517
    vertex -1158.8786934665263 107.42301950600861 79.47011958974679
  endloop
endfacet
facet normal 0.00872517944283506 -7.998899630729258e-06 0.9999619348653768
  outer loop
    vertex -1158.8786934665263 107.42301950600861 79.47011958974679
    vertex -1160.1167734125502 107.50911827249567 79.48092315937517
    vertex -1159.715160119944 107.37998328793279 79.47741784496256
  endloop
endfacet
facet normal 0.00872517944283506 -7.998899630729258e-06 0.9999619348653768
  outer loop
    vertex -1158.8786934665263 107.42301950600861 79.47011958974679
    vertex -1159.715160119944 107.37998328793279 79.47741784496256
    vertex -1159.2943141247604 107.35071674405249 79.47374551424883
  endloop
endfacet
facet normal 0.00872517944283506 -7.998899630729258e-06 0.9999619348653768
  outer loop
    vertex -1159.8897580371358 110.77379107860958 79.47896844887215
    vertex -1159.0532913837183 110.81682729668637 79.47167019365646
    vertex -1159.4741373789022 110.84609384056549 79.47534252437016
  endloop
endfacet
facet normal 0.00872517944283506 -7.998899630729258e-06 0.9999619348653768
  outer loop
    vertex -1159.0532913837183 110.81682729668637 79.47167019365646
    vertex -1159.8897580371358 110.77379107860958 79.47896844887215
    vertex -1158.6516780911127 110.68769231212347 79.46816487924379
  endloop
endfacet
facet normal 0.00872517944283506 -7.998899630729258e-06 0.9999619348653768
  outer loop
    vertex -1158.6516780911127 110.68769231212347 79.46816487924379
    vertex -1159.8897580371358 110.77379107860958 79.47896844887215
    vertex -1160.2759989964827 110.60412098453332 79.48233724161011
  endloop
endfacet
facet normal 0.00872517944283506 -7.998899630729258e-06 0.9999619348653768
  outer loop
    vertex -1158.6516780911127 110.68769231212347 79.46816487924379
    vertex -1160.2759989964827 110.60412098453332 79.48233724161011
    vertex -1158.2926378058457 110.46619374279041 79.46503029726456
  endloop
endfacet
facet normal 0.00872517944283506 -7.998899630729258e-06 0.9999619348653768
  outer loop
    vertex -1158.2926378058457 110.46619374279041 79.46503029726456
    vertex -1160.2759989964827 110.60412098453332 79.48233724161011
    vertex -1160.610413336314 110.34694416748 79.4852531205952
  endloop
endfacet
facet normal 0.00872517944283506 -7.998899630729258e-06 0.9999619348653768
  outer loop
    vertex -1158.2926378058457 110.46619374279041 79.46503029726456
    vertex -1160.610413336314 110.34694416748 79.4852531205952
    vertex -1159.4735724328866 110.34520782164849 79.47533358823746
  endloop
endfacet
facet normal 0.00872517944283506 -7.998899630729258e-06 0.9999619348653768
  outer loop
    vertex -1158.2926378058457 110.46619374279041 79.46503029726456
    vertex -1159.4735724328866 110.34520782164849 79.47533358823746
    vertex -1159.1478440603223 110.32584958115142 79.47249128669986
  endloop
endfacet
facet normal 0.00872517944283506 -7.998899630729258e-06 0.9999619348653768
  outer loop
    vertex -1158.2926378058457 110.46619374279041 79.46503029726456
    vertex -1159.1478440603223 110.32584958115142 79.47249128669986
    vertex -1157.9970366442374 110.16520428042621 79.46244861822953
  endloop
endfacet
facet normal 0.00872517944283506 -7.998899630729258e-06 0.9999619348653768
  outer loop
    vertex -1159.1478440603223 110.32584958115142 79.47249128669986
    vertex -1159.4735724328866 110.34520782164849 79.47533358823746
    vertex -1159.253540323554 110.33213117604951 79.47341359091668
  endloop
endfacet
facet normal 0.00872517944283506 -7.998899630729258e-06 0.9999619348653768
  outer loop
    vertex -1157.9970366442374 110.16520428042621 79.46244861822953
    vertex -1159.1478440603223 110.32584958115142 79.47249128669986
    vertex -1158.8382247093948 110.22284304081444 79.4697888754978
  endloop
endfacet
facet normal 0.00872517944283506 -7.998899630729258e-06 0.9999619348653768
  outer loop
    vertex -1157.9970366442374 110.16520428042621 79.46244861822953
    vertex -1158.8382247093948 110.22284304081444 79.4697888754978
    vertex -1158.5658144272002 110.04320792614104 79.46741051948781
  endloop
endfacet
facet normal 0.00872517944283506 -7.998899630729258e-06 0.9999619348653768
  outer loop
    vertex -1157.9970366442374 110.16520428042621 79.46244861822953
    vertex -1158.5658144272002 110.04320792614104 79.46741051948781
    vertex -1157.7820538713365 109.80221633852805 79.46056987994031
  endloop
endfacet
facet normal 0.00872517944283506 -7.998899630729258e-06 0.9999619348653768
  outer loop
    vertex -1157.7820538713365 109.80221633852805 79.46056987994031
    vertex -1158.5658144272002 110.04320792614104 79.46741051948781
    vertex -1158.349177524292 109.79918607333225 79.46551829970198
  endloop
endfacet
facet normal 0.00872517944283506 -7.998899630729258e-06 0.9999619348653768
  outer loop
    vertex -1157.7820538713365 109.80221633852805 79.46056987994031
    vertex -1158.349177524292 109.79918607333225 79.46551829970198
    vertex -1157.660183504472 109.3983254568706 79.45950326783729
  endloop
endfacet
facet normal 0.00872517944283506 -7.998899630729258e-06 0.9999619348653768
  outer loop
    vertex -1157.660183504472 109.3983254568706 79.45950326783729
    vertex -1158.349177524292 109.79918607333225 79.46551829970198
    vertex -1158.203077447591 109.5074071683895 79.4642411677918
  endloop
endfacet
facet normal 0.00872517944283506 -7.998899630729258e-06 0.9999619348653768
  outer loop
    vertex -1157.660183504472 109.3983254568706 79.45950326783729
    vertex -1158.203077447591 109.5074071683895 79.4642411677918
    vertex -1158.1374706758845 109.18775546150069 79.46366615818621
  endloop
endfacet
facet normal 0.00872517944283506 -7.998899630729258e-06 0.9999619348653768
  outer loop
    vertex -1157.660183504472 109.3983254568706 79.45950326783729
    vertex -1158.1374706758845 109.18775546150069 79.46366615818621
    vertex -1157.6385082063846 108.97700430541853 79.45931076953893
  endloop
endfacet
facet normal 0.00872517944283506 -7.998899630729258e-06 0.9999619348653768
  outer loop
    vertex -1157.6385082063846 108.97700430541853 79.45931076953893
    vertex -1158.1374706758845 109.18775546150069 79.46366615818621
    vertex -1158.1568282022433 108.8620146882386 79.46383245684004
  endloop
endfacet
facet normal 0.00872517944283506 -7.998899630729258e-06 0.9999619348653768
  outer loop
    vertex -1157.6385082063846 108.97700430541853 79.45931076953893
    vertex -1158.1568282022433 108.8620146882386 79.46383245684004
    vertex -1157.7182876666132 108.56273853804778 79.46000357234662
  endloop
endfacet
facet normal 0.00872517944283506 -7.998899630729258e-06 0.9999619348653768
  outer loop
    vertex -1157.7182876666132 108.56273853804778 79.46000357234662
    vertex -1158.1568282022433 108.8620146882386 79.46383245684004
    vertex -1158.259830843235 108.55238354399413 79.4647287307739
  endloop
endfacet
facet normal 0.00872517944283506 -7.998899630729258e-06 0.9999619348653768
  outer loop
    vertex -1157.7182876666132 108.56273853804778 79.46000357234662
    vertex -1158.259830843235 108.55238354399413 79.4647287307739
    vertex -1157.8948853929176 108.17960377536458 79.46154141307943
  endloop
endfacet
facet normal 0.00872517944283506 -7.998899630729258e-06 0.9999619348653768
  outer loop
    vertex -1157.8948853929176 108.17960377536458 79.46154141307943
    vertex -1158.259830843235 108.55238354399413 79.4647287307739
    vertex -1158.439459139099 108.27996287954959 79.46629390040113
  endloop
endfacet
facet normal 0.00872517944283506 -7.998899630729258e-06 0.9999619348653768
  outer loop
    vertex -1157.8948853929176 108.17960377536458 79.46154141307943
    vertex -1158.439459139099 108.27996287954959 79.46629390040113
    vertex -1158.6834717183194 108.06331771299591 79.46842130199828
  endloop
endfacet
facet normal 0.00872517944283506 -7.998899630729258e-06 0.9999619348653768
  outer loop
    vertex -1157.8948853929176 108.17960377536458 79.46154141307943
    vertex -1158.6834717183194 108.06331771299591 79.46842130199828
    vertex -1158.1580381673496 107.84986641714015 79.46383491802374
  endloop
endfacet
facet normal 0.00872517944283506 -7.998899630729258e-06 0.9999619348653768
  outer loop
    vertex -1158.1580381673496 107.84986641714015 79.46383491802374
    vertex -1158.6834717183194 108.06331771299591 79.46842130199828
    vertex -1158.9752395268729 107.91721205440851 79.47096595666144
  endloop
endfacet
facet normal 0.00872517944283506 -7.998899630729258e-06 0.9999619348653768
  outer loop
    vertex -1158.1580381673496 107.84986641714015 79.46383491802374
    vertex -1158.9752395268729 107.91721205440851 79.47096595666144
    vertex -1159.2948790707758 107.85160276296996 79.47375445038136
  endloop
endfacet
facet normal 0.059321507901994176 0.9982387985758707 -0.0005096253880226047
  outer loop
    vertex -1159.4430343048368 110.34517982549866 82.97520036026627
    vertex -1159.253540323554 110.33213117604951 79.47341359091668
    vertex -1159.4735724328866 110.34520782164849 79.47533358823746
  endloop
endfacet
facet normal 0.059321507901994176 0.9982387985758707 -0.0005096253880226047
  outer loop
    vertex -1159.253540323554 110.33213117604951 79.47341359091668
    vertex -1159.4430343048368 110.34517982549866 82.97520036026627
    vertex -1159.223002195504 110.33210317989965 82.97328036294562
  endloop
endfacet
facet normal 0.059321507901994176 0.9982387985758707 -0.0005096253880226047
  outer loop
    vertex -1159.253540323554 110.33213117604951 79.47341359091668
    vertex -1159.223002195504 110.33210317989965 82.97328036294562
    vertex -1159.1478440603223 110.32584958115142 79.47249128669986
  endloop
endfacet
facet normal 0.059321507901994176 0.9982387985758707 -0.0005096253880226047
  outer loop
    vertex -1159.1478440603223 110.32584958115142 79.47249128669986
    vertex -1159.223002195504 110.33210317989965 82.97328036294562
    vertex -1159.1173059322723 110.32582158500227 82.97235805872893
  endloop
endfacet
facet normal 0.31565355348608715 0.9488705338946262 -0.002746648527388388
  outer loop
    vertex -1159.1173059322723 110.32582158500227 82.97235805872893
    vertex -1158.8382247093948 110.22284304081444 79.4697888754978
    vertex -1159.1478440603223 110.32584958115142 79.47249128669986
  endloop
endfacet
facet normal 0.31565355348608715 0.9488705338946262 -0.002746648527388388
  outer loop
    vertex -1158.8382247093948 110.22284304081444 79.4697888754978
    vertex -1159.1173059322723 110.32582158500227 82.97235805872893
    vertex -1158.8076865813448 110.22281504466599 82.96965564752634
  endloop
endfacet
facet normal 0.17137635871527457 -0.9852044884090383 -0.0015032272545397612
  outer loop
    vertex -1159.4872246498787 110.84610583845891 77.97545671760129
    vertex -1159.8984832165786 110.77379907750934 78.47900651400678
    vertex -1159.9028453081123 110.77380307650297 77.97908264210321
  endloop
endfacet
facet normal 0.17137635871527457 -0.9852044884090383 -0.0015032272545397612
  outer loop
    vertex -1159.8984832165786 110.77379907750934 78.47900651400678
    vertex -1159.4872246498787 110.84610583845891 77.97545671760129
    vertex -1159.4828625583452 110.84610183946528 78.47538058950478
  endloop
endfacet
facet normal 0.9819180396714638 -0.18911248325428606 -0.00856924997576399
  outer loop
    vertex -1161.0588890164922 109.63408004547188 78.48912253140693
    vertex -1161.1430305682552 109.21981827709392 77.98989146231112
    vertex -1161.063251108026 109.6340840444657 77.98919865950343
  endloop
endfacet
facet normal 0.9819180396714638 -0.18911248325428606 -0.00856924997576399
  outer loop
    vertex -1161.1430305682552 109.21981827709392 77.98989146231112
    vertex -1161.0588890164922 109.63408004547188 78.48912253140693
    vertex -1161.1386684767217 109.2198142781004 78.48981533421464
  endloop
endfacet
facet normal 0.9081294127787364 -0.4186145344774911 -0.007927242291047569
  outer loop
    vertex -1160.8822912901887 110.01721480815426 78.48758469067417
    vertex -1161.063251108026 109.6340840444657 77.98919865950343
    vertex -1160.8866533817222 110.01721880714737 77.98766081877062
  endloop
endfacet
facet normal 0.9081294127787364 -0.4186145344774911 -0.007927242291047569
  outer loop
    vertex -1161.063251108026 109.6340840444657 77.98919865950343
    vertex -1160.8822912901887 110.01721480815426 78.48758469067417
    vertex -1161.0588890164922 109.63408004547188 78.48912253140693
  endloop
endfacet
facet normal 0.781563605331852 -0.6237882305577038 -0.006824532098705312
  outer loop
    vertex -1160.6191385157567 110.34695216637967 78.4852911857298
    vertex -1160.8866533817222 110.01721880714737 77.98766081877062
    vertex -1160.6235006072905 110.34695616537257 77.98536731382629
  endloop
endfacet
facet normal 0.781563605331852 -0.6237882305577038 -0.006824532098705312
  outer loop
    vertex -1160.8866533817222 110.01721880714737 77.98766081877062
    vertex -1160.6191385157567 110.34695216637967 78.4852911857298
    vertex -1160.8822912901887 110.01721480815426 78.48758469067417
  endloop
endfacet
facet normal 0.9986411592250545 0.05138009809876924 -0.008713243999815464
  outer loop
    vertex -1161.1430305682552 109.21981827709392 77.98989146231112
    vertex -1161.1169931786349 108.79849312664729 78.48962283591626
    vertex -1161.1213552701681 108.79849712564092 77.98969896401273
  endloop
endfacet
facet normal 0.9986411592250545 0.05138009809876924 -0.008713243999815464
  outer loop
    vertex -1161.1169931786349 108.79849312664729 78.48962283591626
    vertex -1161.1430305682552 109.21981827709392 77.98989146231112
    vertex -1161.1386684767217 109.2198142781004 78.48981533421464
  endloop
endfacet
facet normal 0.6095761620096588 -0.7927096220573283 -0.005325204907016375
  outer loop
    vertex -1160.289086267459 110.60413298242662 77.98245143484118
    vertex -1160.6191385157567 110.34695216637967 78.4852911857298
    vertex -1160.6235006072905 110.34695616537257 77.98536731382629
  endloop
endfacet
facet normal 0.6095761620096588 -0.7927096220573283 -0.005325204907016375
  outer loop
    vertex -1160.6191385157567 110.34695216637967 78.4852911857298
    vertex -1160.289086267459 110.60413298242662 77.98245143484118
    vertex -1160.2847241759252 110.60412898343301 78.48237530674473
  endloop
endfacet
facet normal 0.5250095123716376 0.8510840668823806 -0.0045741685848614206
  outer loop
    vertex -1160.4845388772605 107.73062484072844 78.48409580648905
    vertex -1160.1298606835264 107.50913027038894 77.98103735260628
    vertex -1160.488900968794 107.73062883972213 77.98417193458549
  endloop
endfacet
facet normal 0.5250095123716376 0.8510840668823806 -0.0045741685848614206
  outer loop
    vertex -1160.1298606835264 107.50913027038894 77.98103735260628
    vertex -1160.4845388772605 107.73062484072844 78.48409580648905
    vertex -1160.1254985919925 107.50912627139519 78.4809612245098
  endloop
endfacet
facet normal 0.4021623678730009 -0.9155616117033356 -0.003516396162499747
  outer loop
    vertex -1159.9028453081123 110.77380307650297 77.97908264210321
    vertex -1160.2847241759252 110.60412898343301 78.48237530674473
    vertex -1160.289086267459 110.60413298242662 77.98245143484118
  endloop
endfacet
facet normal 0.4021623678730009 -0.9155616117033356 -0.003516396162499747
  outer loop
    vertex -1160.2847241759252 110.60412898343301 78.48237530674473
    vertex -1159.9028453081123 110.77380307650297 77.97908264210321
    vertex -1159.8984832165786 110.77379907750934 78.47900651400678
  endloop
endfacet
facet normal 0.8603762510229006 0.5096041693983339 -0.00750314651416857
  outer loop
    vertex -1160.9994849033035 108.39460624398464 77.98863235190973
    vertex -1160.780140038868 108.03161430309368 78.48667748552407
    vertex -1160.7845021304017 108.03161830208731 77.98675361362051
  endloop
endfacet
facet normal 0.8603762510229006 0.5096041693983339 -0.00750314651416857
  outer loop
    vertex -1160.780140038868 108.03161430309368 78.48667748552407
    vertex -1160.9994849033035 108.39460624398464 77.98863235190973
    vertex -1160.9951228117698 108.39460224499098 78.48855622381325
  endloop
endfacet
facet normal 0.7134236771601433 0.70070534189587 -0.006219381471814079
  outer loop
    vertex -1160.7845021304017 108.03161830208731 77.98675361362051
    vertex -1160.4845388772605 107.73062484072844 78.48409580648905
    vertex -1160.488900968794 107.73062883972213 77.98417193458549
  endloop
endfacet
facet normal 0.7134236771601433 0.70070534189587 -0.006219381471814079
  outer loop
    vertex -1160.4845388772605 107.73062484072844 78.48409580648905
    vertex -1160.7845021304017 108.03161830208731 77.98675361362051
    vertex -1160.780140038868 108.03161430309368 78.48667748552407
  endloop
endfacet
facet normal 0.9573268845176962 0.28888665490894216 -0.008350855953956402
  outer loop
    vertex -1161.1213552701681 108.79849712564092 77.98969896401273
    vertex -1160.9951228117698 108.39460224499098 78.48855622381325
    vertex -1160.9994849033035 108.39460624398464 77.98863235190973
  endloop
endfacet
facet normal 0.9573268845176962 0.28888665490894216 -0.008350855953956402
  outer loop
    vertex -1160.9951228117698 108.39460224499098 78.48855622381325
    vertex -1161.1213552701681 108.79849712564092 77.98969896401273
    vertex -1161.1169931786349 108.79849312664729 78.48962283591626
  endloop
endfacet
facet normal -0.6095761620107218 0.7927096220565107 0.005325204907076273
  outer loop
    vertex -1158.501177686623 107.59269759898535 78.46678886214343
    vertex -1158.1711254383258 107.84987841503356 77.96394911125485
    vertex -1158.5055397781566 107.59270159797916 77.9668649902399
  endloop
endfacet
facet normal -0.6095761620107218 0.7927096220565107 0.005325204907076273
  outer loop
    vertex -1158.1711254383258 107.84987841503356 77.96394911125485
    vertex -1158.501177686623 107.59269759898535 78.46678886214343
    vertex -1158.1667633467923 107.84987441603992 78.46387298315837
  endloop
endfacet
facet normal -0.40216236787442744 0.9155616117027087 0.0035163961625710788
  outer loop
    vertex -1158.8874186459698 107.42302750490845 78.47015765488142
    vertex -1158.5055397781566 107.59270159797916 77.9668649902399
    vertex -1158.8917807375033 107.42303150390262 77.97023378297789
  endloop
endfacet
facet normal -0.40216236787442744 0.9155616117027087 0.0035163961625710788
  outer loop
    vertex -1158.5055397781566 107.59270159797916 77.9668649902399
    vertex -1158.8874186459698 107.42302750490845 78.47015765488142
    vertex -1158.501177686623 107.59269759898535 78.46678886214343
  endloop
endfacet
facet normal -0.9986411592250488 -0.051380098098879196 0.008713243999816296
  outer loop
    vertex -1157.647233385827 108.97701230431814 78.45934883467355
    vertex -1157.6732707754475 109.39833745476454 77.95961746106836
    vertex -1157.651595477361 108.97701630331122 77.95942496277003
  endloop
endfacet
facet normal -0.9986411592250488 -0.051380098098879196 0.008713243999816296
  outer loop
    vertex -1157.6732707754475 109.39833745476454 77.95961746106836
    vertex -1157.647233385827 108.97701230431814 78.45934883467355
    vertex -1157.6689086839144 109.39833345577036 78.45954133297191
  endloop
endfacet
facet normal 0.06936942148540294 0.9975908613209135 -0.0005973037574632388
  outer loop
    vertex -1159.7238852993867 107.37999128683256 78.47745591009712
    vertex -1159.3074013957369 107.3507287419459 77.9738597074799
    vertex -1159.7282473909204 107.3799952858262 77.9775320381936
  endloop
endfacet
facet normal 0.06936942148540294 0.9975908613209135 -0.0005973037574632388
  outer loop
    vertex -1159.3074013957369 107.3507287419459 77.9738597074799
    vertex -1159.7238852993867 107.37999128683256 78.47745591009712
    vertex -1159.3030393042034 107.35072474295245 78.47378357938341
  endloop
endfacet
facet normal -0.7815636053310366 0.6237882305587243 0.006824532098778696
  outer loop
    vertex -1158.1711254383258 107.84987841503356 77.96394911125485
    vertex -1157.9036105723599 108.17961177426436 78.46157947821406
    vertex -1157.907972663894 108.17961577325781 77.96165560631054
  endloop
endfacet
facet normal -0.7815636053310366 0.6237882305587243 0.006824532098778696
  outer loop
    vertex -1157.9036105723599 108.17961177426436 78.46157947821406
    vertex -1158.1711254383258 107.84987841503356 77.96394911125485
    vertex -1158.1667633467923 107.84987441603992 78.46387298315837
  endloop
endfacet
facet normal -0.71342367715954 -0.7007053418964841 0.006219381471810193
  outer loop
    vertex -1158.0057618236808 110.16521227932563 78.46248668336415
    vertex -1158.305725076822 110.46620574068426 77.96514449049562
    vertex -1158.0101239152145 110.16521627831872 77.96256281146064
  endloop
endfacet
facet normal -0.71342367715954 -0.7007053418964841 0.006219381471810193
  outer loop
    vertex -1158.305725076822 110.46620574068426 77.96514449049562
    vertex -1158.0057618236808 110.16521227932563 78.46248668336415
    vertex -1158.3013629852883 110.46620174169011 78.46506836239914
  endloop
endfacet
facet normal -0.9573268845178456 -0.2888866549084471 0.00835085595393775
  outer loop
    vertex -1157.6689086839144 109.39833345577036 78.45954133297191
    vertex -1157.7951411423128 109.80222833642127 77.96068407317142
    vertex -1157.6732707754475 109.39833745476454 77.95961746106836
  endloop
endfacet
facet normal -0.9573268845178456 -0.2888866549084471 0.00835085595393775
  outer loop
    vertex -1157.7951411423128 109.80222833642127 77.96068407317142
    vertex -1157.6689086839144 109.39833345577036 78.45954133297191
    vertex -1157.7907790507793 109.80222433742763 78.46060794507493
  endloop
endfacet
facet normal -0.9081294127791671 0.41861453447655583 0.007927242291081264
  outer loop
    vertex -1157.907972663894 108.17961577325781 77.96165560631054
    vertex -1157.7270128460568 108.56274653694744 78.46004163748124
    vertex -1157.7313749375905 108.5627505359411 77.96011776557769
  endloop
endfacet
facet normal -0.9081294127791671 0.41861453447655583 0.007927242291081264
  outer loop
    vertex -1157.7270128460568 108.56274653694744 78.46004163748124
    vertex -1157.907972663894 108.17961577325781 77.96165560631054
    vertex -1157.9036105723599 108.17961177426436 78.46157947821406
  endloop
endfacet
facet normal -0.5250095123712815 -0.8510840668826006 0.004574168584806798
  outer loop
    vertex -1158.305725076822 110.46620574068426 77.96514449049562
    vertex -1158.6604032705554 110.68770031102319 78.46820294437845
    vertex -1158.6647653620885 110.68770431001681 77.96827907247491
  endloop
endfacet
facet normal -0.5250095123712815 -0.8510840668826006 0.004574168584806798
  outer loop
    vertex -1158.6604032705554 110.68770031102319 78.46820294437845
    vertex -1158.305725076822 110.46620574068426 77.96514449049562
    vertex -1158.3013629852883 110.46620174169011 78.46506836239914
  endloop
endfacet
facet normal -0.9819180396713743 0.18911248325475116 0.008569249975752275
  outer loop
    vertex -1157.7313749375905 108.5627505359411 77.96011776557769
    vertex -1157.647233385827 108.97701230431814 78.45934883467355
    vertex -1157.651595477361 108.97701630331122 77.95942496277003
  endloop
endfacet
facet normal -0.9819180396713743 0.18911248325475116 0.008569249975752275
  outer loop
    vertex -1157.647233385827 108.97701230431814 78.45934883467355
    vertex -1157.7313749375905 108.5627505359411 77.96011776557769
    vertex -1157.7270128460568 108.56274653694744 78.46004163748124
  endloop
endfacet
facet normal -0.06936942148369743 -0.997590861321032 0.0005973037575109228
  outer loop
    vertex -1159.0663786546954 110.81683929457897 77.97178438688753
    vertex -1159.4828625583452 110.84610183946528 78.47538058950478
    vertex -1159.4872246498787 110.84610583845891 77.97545671760129
  endloop
endfacet
facet normal -0.06936942148369743 -0.997590861321032 0.0005973037575109228
  outer loop
    vertex -1159.4828625583452 110.84610183946528 78.47538058950478
    vertex -1159.0663786546954 110.81683929457897 77.97178438688753
    vertex -1159.0620165631617 110.81683529558589 78.47170825879108
  endloop
endfacet
facet normal -0.8603762510233394 -0.5096041693975923 0.007503146514203041
  outer loop
    vertex -1157.7907790507793 109.80222433742763 78.46060794507493
    vertex -1158.0101239152145 110.16521627831872 77.96256281146064
    vertex -1157.7951411423128 109.80222833642127 77.96068407317142
  endloop
endfacet
facet normal -0.8603762510233394 -0.5096041693975923 0.007503146514203041
  outer loop
    vertex -1158.0101239152145 110.16521627831872 77.96256281146064
    vertex -1157.7907790507793 109.80222433742763 78.46060794507493
    vertex -1158.0057618236808 110.16521227932563 78.46248668336415
  endloop
endfacet
facet normal -0.30608370305080373 -0.9520008794690292 0.002663121646200729
  outer loop
    vertex -1158.6647653620885 110.68770431001681 77.96827907247491
    vertex -1159.0620165631617 110.81683529558589 78.47170825879108
    vertex -1159.0663786546954 110.81683929457897 77.97178438688753
  endloop
endfacet
facet normal -0.30608370305080373 -0.9520008794690292 0.002663121646200729
  outer loop
    vertex -1159.0620165631617 110.81683529558589 78.47170825879108
    vertex -1158.6647653620885 110.68770431001681 77.96827907247491
    vertex -1158.6604032705554 110.68770031102319 78.46820294437845
  endloop
endfacet
facet normal -0.171376358715686 0.9852044884089666 0.0015032272546063464
  outer loop
    vertex -1159.3030393042034 107.35072474295245 78.47378357938341
    vertex -1158.8917807375033 107.42303150390262 77.97023378297789
    vertex -1159.3074013957369 107.3507287419459 77.9738597074799
  endloop
endfacet
facet normal -0.171376358715686 0.9852044884089666 0.0015032272546063464
  outer loop
    vertex -1158.8917807375033 107.42303150390262 77.97023378297789
    vertex -1159.3030393042034 107.35072474295245 78.47378357938341
    vertex -1158.8874186459698 107.42302750490845 78.47015765488142
  endloop
endfacet
facet normal 0.30608370305117677 0.9520008794689093 -0.0026631216461432744
  outer loop
    vertex -1160.1254985919925 107.50912627139519 78.4809612245098
    vertex -1159.7282473909204 107.3799952858262 77.9775320381936
    vertex -1160.1298606835264 107.50913027038894 77.98103735260628
  endloop
endfacet
facet normal 0.30608370305117677 0.9520008794689093 -0.0026631216461432744
  outer loop
    vertex -1159.7282473909204 107.3799952858262 77.9775320381936
    vertex -1160.1254985919925 107.50912627139519 78.4809612245098
    vertex -1159.7238852993867 107.37999128683256 78.47745591009712
  endloop
endfacet
facet normal 0.5801622729934679 -0.7508218999059983 0.3157185639404182
  outer loop
    vertex -1158.2357887840458 107.15932532266729 77.96450780815157
    vertex -1158.1580381673496 107.84986641714015 79.46383491802374
    vertex -1158.4924525071795 107.59268960008583 79.4667507970088
  endloop
endfacet
facet normal 0.5801622729934679 -0.7508218999059983 0.3157185639404182
  outer loop
    vertex -1158.1580381673496 107.84986641714015 79.46383491802374
    vertex -1158.2357887840458 107.15932532266729 77.96450780815157
    vertex -1157.805125728473 107.4905209104848 77.960752701974
  endloop
endfacet
facet normal -0.2878673686507422 -0.9038659741170008 0.3164785599367244
  outer loop
    vertex -1159.810407255404 106.88539941871875 77.97824496866926
    vertex -1160.1167734125502 107.50911827249567 79.48092315937517
    vertex -1160.3276099801424 107.05170110022488 77.98275915731455
  endloop
endfacet
facet normal -0.2878673686507422 -0.9038659741170008 0.3164785599367244
  outer loop
    vertex -1160.1167734125502 107.50911827249567 79.48092315937517
    vertex -1159.810407255404 106.88539941871875 77.97824496866926
    vertex -1159.715160119944 107.37998328793279 79.47741784496256
  endloop
endfacet
facet normal -0.815341115782362 -0.4845332513779037 0.31693278975822314
  outer loop
    vertex -1160.7714148594255 108.03160630419396 79.48663942038941
    vertex -1161.447523150967 108.19202836196192 77.99254009436645
    vertex -1161.1706655918083 107.7245678569103 77.99012063121583
  endloop
endfacet
facet normal -0.815341115782362 -0.4845332513779037 0.31693278975822314
  outer loop
    vertex -1161.447523150967 108.19202836196192 77.99254009436645
    vertex -1160.7714148594255 108.03160630419396 79.48663942038941
    vertex -1160.986397632327 108.39459424609122 79.48851815867863
  endloop
endfacet
facet normal -0.06306635794625116 -0.9465661865947848 0.3162832415585795
  outer loop
    vertex -1159.7282473078717 106.88539943247588 77.97753206490447
    vertex -1159.715160119944 107.37998328793279 79.47741784496256
    vertex -1159.810407255404 106.88539941871875 77.97824496866926
  endloop
endfacet
facet normal -0.06306635794625116 -0.9465661865947848 0.3162832415585795
  outer loop
    vertex -1159.715160119944 107.37998328793279 79.47741784496256
    vertex -1159.7282473078717 106.88539943247588 77.97753206490447
    vertex -1159.2684364107831 106.8477095899292 77.97351569429955
  endloop
endfacet
facet normal -0.06306635794625116 -0.9465661865947848 0.3162832415585795
  outer loop
    vertex -1159.715160119944 107.37998328793279 79.47741784496256
    vertex -1159.2684364107831 106.8477095899292 77.97351569429955
    vertex -1159.2943141247604 107.35071674405249 79.47374551424883
  endloop
endfacet
facet normal -0.9312037089880744 0.17986176004864324 0.3170321744540424
  outer loop
    vertex -1161.6323830906267 109.25474695188184 77.9941615928136
    vertex -1161.0501638370495 109.63407204657248 79.48908446627236
    vertex -1161.529642083373 109.78824369512904 77.99326939251439
  endloop
endfacet
facet normal -0.9312037089880744 0.17986176004864324 0.3170321744540424
  outer loop
    vertex -1161.0501638370495 109.63407204657248 79.48908446627236
    vertex -1161.6323830906267 109.25474695188184 77.9941615928136
    vertex -1161.129943297279 109.21980627920048 79.48977726908001
  endloop
endfacet
facet normal -0.49602098021116564 -0.8085113449500557 0.3166584789286504
  outer loop
    vertex -1160.3276099801424 107.05170110022488 77.98275915731455
    vertex -1160.4758136978176 107.73061684182873 79.48405774135443
    vertex -1160.7899866425948 107.3369497851997 77.98679591199988
  endloop
endfacet
facet normal -0.49602098021116564 -0.8085113449500557 0.3166584789286504
  outer loop
    vertex -1160.4758136978176 107.73061684182873 79.48405774135443
    vertex -1160.3276099801424 107.05170110022488 77.98275915731455
    vertex -1160.1167734125502 107.50911827249567 79.48092315937517
  endloop
endfacet
facet normal 0.3839046734251216 -0.8676575344165666 0.31589176103930816
  outer loop
    vertex -1158.7331948217882 106.94082200970675 77.96884618244162
    vertex -1158.4924525071795 107.59268960008583 79.4667507970088
    vertex -1158.8786934665263 107.42301950600861 79.47011958974679
  endloop
endfacet
facet normal 0.3839046734251216 -0.8676575344165666 0.31589176103930816
  outer loop
    vertex -1158.4924525071795 107.59268960008583 79.4667507970088
    vertex -1158.7331948217882 106.94082200970675 77.96884618244162
    vertex -1158.2357887840458 107.15932532266729 77.96450780815157
  endloop
endfacet
facet normal 0.7427345081186768 -0.5905575146944984 0.31557451146688753
  outer loop
    vertex -1157.8948853929176 108.17960377536458 79.46154141307943
    vertex -1157.805125728473 107.4905209104848 77.960752701974
    vertex -1157.4662342264623 107.9151608894453 77.95779909703047
  endloop
endfacet
facet normal 0.7427345081186768 -0.5905575146944984 0.31557451146688753
  outer loop
    vertex -1157.805125728473 107.4905209104848 77.960752701974
    vertex -1157.8948853929176 108.17960377536458 79.46154141307943
    vertex -1158.1580381673496 107.84986641714015 79.46383491802374
  endloop
endfacet
facet normal -0.6753523547334439 -0.6659796256020678 0.31681277631895216
  outer loop
    vertex -1160.4758136978176 107.73061684182873 79.48405774135443
    vertex -1161.1706655918083 107.7245678569103 77.99012063121583
    vertex -1160.7899866425948 107.3369497851997 77.98679591199988
  endloop
endfacet
facet normal -0.6753523547334439 -0.6659796256020678 0.31681277631895216
  outer loop
    vertex -1161.1706655918083 107.7245678569103 77.99012063121583
    vertex -1160.4758136978176 107.73061684182873 79.48405774135443
    vertex -1160.7714148594255 108.03160630419396 79.48663942038941
  endloop
endfacet
facet normal -0.907755063733844 -0.2747439379210802 0.3170118496857533
  outer loop
    vertex -1160.986397632327 108.39459424609122 79.48851815867863
    vertex -1161.604469365069 108.71216419495101 77.9939136910478
    vertex -1161.447523150967 108.19202836196192 77.99254009436645
  endloop
endfacet
facet normal -0.907755063733844 -0.2747439379210802 0.3170118496857533
  outer loop
    vertex -1161.604469365069 108.71216419495101 77.9939136910478
    vertex -1160.986397632327 108.39459424609122 79.48851815867863
    vertex -1161.1082679991919 108.79848512774768 79.48958477078165
  endloop
endfacet
facet normal -0.008725190185321637 7.923287668628812e-06 -0.999961934772245
  outer loop
    vertex -1157.9784648610685 110.85986063740322 77.96229212661906
    vertex -1159.0663786546954 110.81683929457897 77.97178438688753
    vertex -1159.4872246498787 110.84610583845891 77.97545671760129
  endloop
endfacet
facet normal -0.008725190185321637 7.923287668628812e-06 -0.999961934772245
  outer loop
    vertex -1159.0663786546954 110.81683929457897 77.97178438688753
    vertex -1157.9784648610685 110.85986063740322 77.96229212661906
    vertex -1157.597785911855 110.47224256569255 77.95896740740314
  endloop
endfacet
facet normal -0.008725190185321637 7.923287668628812e-06 -0.999961934772245
  outer loop
    vertex -1159.0663786546954 110.81683929457897 77.97178438688753
    vertex -1157.597785911855 110.47224256569255 77.95896740740314
    vertex -1158.6647653620885 110.68770431001681 77.96827907247491
  endloop
endfacet
facet normal -0.008725190185321637 7.923287668628812e-06 -0.999961934772245
  outer loop
    vertex -1158.6647653620885 110.68770431001681 77.96827907247491
    vertex -1157.597785911855 110.47224256569255 77.95896740740314
    vertex -1158.305725076822 110.46620574068426 77.96514449049562
  endloop
endfacet
facet normal -0.008725190185321637 7.923287668628812e-06 -0.999961934772245
  outer loop
    vertex -1158.305725076822 110.46620574068426 77.96514449049562
    vertex -1157.597785911855 110.47224256569255 77.95896740740314
    vertex -1157.3209283526955 110.00478206064075 77.95654794425249
  endloop
endfacet
facet normal -0.008725190185321637 7.923287668628812e-06 -0.999961934772245
  outer loop
    vertex -1158.305725076822 110.46620574068426 77.96514449049562
    vertex -1157.3209283526955 110.00478206064075 77.95654794425249
    vertex -1158.0101239152145 110.16521627831872 77.96256281146064
  endloop
endfacet
facet normal -0.008725190185321637 7.923287668628812e-06 -0.999961934772245
  outer loop
    vertex -1158.0101239152145 110.16521627831872 77.96256281146064
    vertex -1157.3209283526955 110.00478206064075 77.95654794425249
    vertex -1157.7951411423128 109.80222833642127 77.96068407317142
  endloop
endfacet
facet normal -0.008725190185321637 7.923287668628812e-06 -0.999961934772245
  outer loop
    vertex -1157.7951411423128 109.80222833642127 77.96068407317142
    vertex -1157.3209283526955 110.00478206064075 77.95654794425249
    vertex -1157.1639821385945 109.48464622765138 77.95517434757113
  endloop
endfacet
facet normal -0.008725190185321637 7.923287668628812e-06 -0.999961934772245
  outer loop
    vertex -1157.7951411423128 109.80222833642127 77.96068407317142
    vertex -1157.1639821385945 109.48464622765138 77.95517434757113
    vertex -1157.6732707754475 109.39833745476454 77.95961746106836
  endloop
endfacet
facet normal -0.008725190185321637 7.923287668628812e-06 -0.999961934772245
  outer loop
    vertex -1157.6732707754475 109.39833745476454 77.95961746106836
    vertex -1157.1639821385945 109.48464622765138 77.95517434757113
    vertex -1157.1360684130368 108.94206347072054 77.95492644580527
  endloop
endfacet
facet normal -0.008725190185321637 7.923287668628812e-06 -0.999961934772245
  outer loop
    vertex -1157.6732707754475 109.39833745476454 77.95961746106836
    vertex -1157.1360684130368 108.94206347072054 77.95492644580527
    vertex -1157.651595477361 108.97701630331122 77.95942496277003
  endloop
endfacet
facet normal -0.008725190185321637 7.923287668628812e-06 -0.999961934772245
  outer loop
    vertex -1157.651595477361 108.97701630331122 77.95942496277003
    vertex -1157.1360684130368 108.94206347072054 77.95492644580527
    vertex -1157.7313749375905 108.5627505359411 77.96011776557769
  endloop
endfacet
facet normal -0.008725190185321637 7.923287668628812e-06 -0.999961934772245
  outer loop
    vertex -1157.7313749375905 108.5627505359411 77.96011776557769
    vertex -1157.1360684130368 108.94206347072054 77.95492644580527
    vertex -1157.2388094202904 108.40856672747363 77.95581864610453
  endloop
endfacet
facet normal -0.008725190185321637 7.923287668628812e-06 -0.999961934772245
  outer loop
    vertex -1157.7313749375905 108.5627505359411 77.96011776557769
    vertex -1157.2388094202904 108.40856672747363 77.95581864610453
    vertex -1157.907972663894 108.17961577325781 77.96165560631054
  endloop
endfacet
facet normal -0.008725190185321637 7.923287668628812e-06 -0.999961934772245
  outer loop
    vertex -1157.907972663894 108.17961577325781 77.96165560631054
    vertex -1157.2388094202904 108.40856672747363 77.95581864610453
    vertex -1157.4662342264623 107.9151608894453 77.95779909703047
  endloop
endfacet
facet normal -0.008725190185321637 7.923287668628812e-06 -0.999961934772245
  outer loop
    vertex -1157.907972663894 108.17961577325781 77.96165560631054
    vertex -1157.4662342264623 107.9151608894453 77.95779909703047
    vertex -1158.1711254383258 107.84987841503356 77.96394911125485
  endloop
endfacet
facet normal -0.008725190185321637 7.923287668628812e-06 -0.999961934772245
  outer loop
    vertex -1158.1711254383258 107.84987841503356 77.96394911125485
    vertex -1157.4662342264623 107.9151608894453 77.95779909703047
    vertex -1157.805125728473 107.4905209104848 77.960752701974
  endloop
endfacet
facet normal -0.008725190185321637 7.923287668628812e-06 -0.999961934772245
  outer loop
    vertex -1158.1711254383258 107.84987841503356 77.96394911125485
    vertex -1157.805125728473 107.4905209104848 77.960752701974
    vertex -1158.5055397781566 107.59270159797916 77.9668649902399
  endloop
endfacet
facet normal -0.008725190185321637 7.923287668628812e-06 -0.999961934772245
  outer loop
    vertex -1158.5055397781566 107.59270159797916 77.9668649902399
    vertex -1157.805125728473 107.4905209104848 77.960752701974
    vertex -1158.8917807375033 107.42303150390262 77.97023378297789
  endloop
endfacet
facet normal -0.008725190185321637 7.923287668628812e-06 -0.999961934772245
  outer loop
    vertex -1158.8917807375033 107.42303150390262 77.97023378297789
    vertex -1157.805125728473 107.4905209104848 77.960752701974
    vertex -1158.2357887840458 107.15932532266729 77.96450780815157
  endloop
endfacet
facet normal -0.008725190185321637 7.923287668628812e-06 -0.999961934772245
  outer loop
    vertex -1158.8917807375033 107.42303150390262 77.97023378297789
    vertex -1158.2357887840458 107.15932532266729 77.96450780815157
    vertex -1159.3074013957369 107.3507287419459 77.9738597074799
  endloop
endfacet
facet normal -0.008725190185321637 7.923287668628812e-06 -0.999961934772245
  outer loop
    vertex -1159.3074013957369 107.3507287419459 77.9738597074799
    vertex -1158.2357887840458 107.15932532266729 77.96450780815157
    vertex -1160.7899866425948 107.3369497851997 77.98679591199988
  endloop
endfacet
facet normal -0.008725190185321637 7.923287668628812e-06 -0.999961934772245
  outer loop
    vertex -1160.7899866425948 107.3369497851997 77.98679591199988
    vertex -1158.2357887840458 107.15932532266729 77.96450780815157
    vertex -1160.3276099801424 107.05170110022488 77.98275915731455
  endloop
endfacet
facet normal -0.008725190185321637 7.923287668628812e-06 -0.999961934772245
  outer loop
    vertex -1160.3276099801424 107.05170110022488 77.98275915731455
    vertex -1158.2357887840458 107.15932532266729 77.96450780815157
    vertex -1158.7331948217882 106.94082200970675 77.96884618244162
  endloop
endfacet
facet normal -0.008725190185321637 7.923287668628812e-06 -0.999961934772245
  outer loop
    vertex -1160.3276099801424 107.05170110022488 77.98275915731455
    vertex -1158.7331948217882 106.94082200970675 77.96884618244162
    vertex -1159.810407255404 106.88539941871875 77.97824496866926
  endloop
endfacet
facet normal -0.008725190185321637 7.923287668628812e-06 -0.999961934772245
  outer loop
    vertex -1159.810407255404 106.88539941871875 77.97824496866926
    vertex -1158.7331948217882 106.94082200970675 77.96884618244162
    vertex -1159.7282473078717 106.88539943247588 77.97753206490447
  endloop
endfacet
facet normal -0.008725190185321637 7.923287668628812e-06 -0.999961934772245
  outer loop
    vertex -1159.7282473078717 106.88539943247588 77.97753206490447
    vertex -1158.7331948217882 106.94082200970675 77.96884618244162
    vertex -1159.2684364107831 106.8477095899292 77.97351569429955
  endloop
endfacet
facet normal -0.008725190185321637 7.923287668628812e-06 -0.999961934772245
  outer loop
    vertex -1158.9580442482588 111.31141100388416 77.97084306994967
    vertex -1160.0352566818742 111.25598841289553 77.98024185617736
    vertex -1159.5000150928781 111.34910083267347 77.97557234431942
  endloop
endfacet
facet normal -0.008725190185321637 7.923287668628812e-06 -0.999961934772245
  outer loop
    vertex -1160.0352566818742 111.25598841289553 77.98024185617736
    vertex -1158.9580442482588 111.31141100388416 77.97084306994967
    vertex -1158.4408415235189 111.14510932237825 77.96632888130435
  endloop
endfacet
facet normal -0.008725190185321637 7.923287668628812e-06 -0.999961934772245
  outer loop
    vertex -1160.0352566818742 111.25598841289553 77.98024185617736
    vertex -1158.4408415235189 111.14510932237825 77.96632888130435
    vertex -1160.5326627196168 111.03748509993562 77.98458023046736
  endloop
endfacet
facet normal -0.008725190185321637 7.923287668628812e-06 -0.999961934772245
  outer loop
    vertex -1160.5326627196168 111.03748509993562 77.98458023046736
    vertex -1158.4408415235189 111.14510932237825 77.96632888130435
    vertex -1157.9784648610685 110.85986063740322 77.96229212661906
  endloop
endfacet
facet normal -0.008725190185321637 7.923287668628812e-06 -0.999961934772245
  outer loop
    vertex -1160.5326627196168 111.03748509993562 77.98458023046736
    vertex -1157.9784648610685 110.85986063740322 77.96229212661906
    vertex -1159.4872246498787 110.84610583845891 77.97545671760129
  endloop
endfacet
facet normal -0.008725190185321637 7.923287668628812e-06 -0.999961934772245
  outer loop
    vertex -1160.5326627196168 111.03748509993562 77.98458023046736
    vertex -1159.4872246498787 110.84610583845891 77.97545671760129
    vertex -1160.9633257751902 110.70628951211786 77.98833533664491
  endloop
endfacet
facet normal -0.008725190185321637 7.923287668628812e-06 -0.999961934772245
  outer loop
    vertex -1160.9633257751902 110.70628951211786 77.98833533664491
    vertex -1159.4872246498787 110.84610583845891 77.97545671760129
    vertex -1159.9028453081123 110.77380307650297 77.97908264210321
  endloop
endfacet
facet normal -0.008725190185321637 7.923287668628812e-06 -0.999961934772245
  outer loop
    vertex -1160.9633257751902 110.70628951211786 77.98833533664491
    vertex -1159.9028453081123 110.77380307650297 77.97908264210321
    vertex -1160.289086267459 110.60413298242662 77.98245143484118
  endloop
endfacet
facet normal -0.008725190185321637 7.923287668628812e-06 -0.999961934772245
  outer loop
    vertex -1160.9633257751902 110.70628951211786 77.98833533664491
    vertex -1160.289086267459 110.60413298242662 77.98245143484118
    vertex -1161.3022172772012 110.28164953315736 77.99128894158844
  endloop
endfacet
facet normal -0.008725190185321637 7.923287668628812e-06 -0.999961934772245
  outer loop
    vertex -1161.3022172772012 110.28164953315736 77.99128894158844
    vertex -1160.289086267459 110.60413298242662 77.98245143484118
    vertex -1160.6235006072905 110.34695616537257 77.98536731382629
  endloop
endfacet
facet normal -0.008725190185321637 7.923287668628812e-06 -0.999961934772245
  outer loop
    vertex -1161.3022172772012 110.28164953315736 77.99128894158844
    vertex -1160.6235006072905 110.34695616537257 77.98536731382629
    vertex -1160.8866533817222 110.01721880714737 77.98766081877062
  endloop
endfacet
facet normal -0.008725190185321637 7.923287668628812e-06 -0.999961934772245
  outer loop
    vertex -1161.3022172772012 110.28164953315736 77.99128894158844
    vertex -1160.8866533817222 110.01721880714737 77.98766081877062
    vertex -1161.529642083373 109.78824369512904 77.99326939251439
  endloop
endfacet
facet normal -0.008725190185321637 7.923287668628812e-06 -0.999961934772245
  outer loop
    vertex -1161.529642083373 109.78824369512904 77.99326939251439
    vertex -1160.8866533817222 110.01721880714737 77.98766081877062
    vertex -1161.063251108026 109.6340840444657 77.98919865950343
  endloop
endfacet
facet normal -0.008725190185321637 7.923287668628812e-06 -0.999961934772245
  outer loop
    vertex -1161.529642083373 109.78824369512904 77.99326939251439
    vertex -1161.063251108026 109.6340840444657 77.98919865950343
    vertex -1161.6323830906267 109.25474695188184 77.9941615928136
  endloop
endfacet
facet normal -0.008725190185321637 7.923287668628812e-06 -0.999961934772245
  outer loop
    vertex -1161.6323830906267 109.25474695188184 77.9941615928136
    vertex -1161.063251108026 109.6340840444657 77.98919865950343
    vertex -1161.1430305682552 109.21981827709392 77.98989146231112
  endloop
endfacet
facet normal -0.008725190185321637 7.923287668628812e-06 -0.999961934772245
  outer loop
    vertex -1161.6323830906267 109.25474695188184 77.9941615928136
    vertex -1161.1430305682552 109.21981827709392 77.98989146231112
    vertex -1161.604469365069 108.71216419495101 77.9939136910478
  endloop
endfacet
facet normal -0.008725190185321637 7.923287668628812e-06 -0.999961934772245
  outer loop
    vertex -1161.604469365069 108.71216419495101 77.9939136910478
    vertex -1161.1430305682552 109.21981827709392 77.98989146231112
    vertex -1161.1213552701681 108.79849712564092 77.98969896401273
  endloop
endfacet
facet normal -0.008725190185321637 7.923287668628812e-06 -0.999961934772245
  outer loop
    vertex -1161.604469365069 108.71216419495101 77.9939136910478
    vertex -1161.1213552701681 108.79849712564092 77.98969896401273
    vertex -1160.9994849033035 108.39460624398464 77.98863235190973
  endloop
endfacet
facet normal -0.008725190185321637 7.923287668628812e-06 -0.999961934772245
  outer loop
    vertex -1161.604469365069 108.71216419495101 77.9939136910478
    vertex -1160.9994849033035 108.39460624398464 77.98863235190973
    vertex -1161.447523150967 108.19202836196192 77.99254009436645
  endloop
endfacet
facet normal -0.008725190185321637 7.923287668628812e-06 -0.999961934772245
  outer loop
    vertex -1161.447523150967 108.19202836196192 77.99254009436645
    vertex -1160.9994849033035 108.39460624398464 77.98863235190973
    vertex -1160.7845021304017 108.03161830208731 77.98675361362051
  endloop
endfacet
facet normal -0.008725190185321637 7.923287668628812e-06 -0.999961934772245
  outer loop
    vertex -1161.447523150967 108.19202836196192 77.99254009436645
    vertex -1160.7845021304017 108.03161830208731 77.98675361362051
    vertex -1161.1706655918083 107.7245678569103 77.99012063121583
  endloop
endfacet
facet normal -0.008725190185321637 7.923287668628812e-06 -0.999961934772245
  outer loop
    vertex -1161.1706655918083 107.7245678569103 77.99012063121583
    vertex -1160.7845021304017 108.03161830208731 77.98675361362051
    vertex -1160.488900968794 107.73062883972213 77.98417193458549
  endloop
endfacet
facet normal -0.008725190185321637 7.923287668628812e-06 -0.999961934772245
  outer loop
    vertex -1161.1706655918083 107.7245678569103 77.99012063121583
    vertex -1160.488900968794 107.73062883972213 77.98417193458549
    vertex -1160.1298606835264 107.50913027038894 77.98103735260628
  endloop
endfacet
facet normal -0.008725190185321637 7.923287668628812e-06 -0.999961934772245
  outer loop
    vertex -1161.1706655918083 107.7245678569103 77.99012063121583
    vertex -1160.1298606835264 107.50913027038894 77.98103735260628
    vertex -1160.7899866425948 107.3369497851997 77.98679591199988
  endloop
endfacet
facet normal -0.008725190185321637 7.923287668628812e-06 -0.999961934772245
  outer loop
    vertex -1160.7899866425948 107.3369497851997 77.98679591199988
    vertex -1160.1298606835264 107.50913027038894 77.98103735260628
    vertex -1159.7282473909204 107.3799952858262 77.9775320381936
  endloop
endfacet
facet normal -0.008725190185321637 7.923287668628812e-06 -0.999961934772245
  outer loop
    vertex -1160.7899866425948 107.3369497851997 77.98679591199988
    vertex -1159.7282473909204 107.3799952858262 77.9775320381936
    vertex -1159.3074013957369 107.3507287419459 77.9738597074799
  endloop
endfacet
facet normal 0.1652782583595362 -0.9342238226575299 0.3160837649940133
  outer loop
    vertex -1159.2684364107831 106.8477095899292 77.97351569429955
    vertex -1158.8786934665263 107.42301950600861 79.47011958974679
    vertex -1159.2943141247604 107.35071674405249 79.47374551424883
  endloop
endfacet
facet normal 0.1652782583595362 -0.9342238226575299 0.3160837649940133
  outer loop
    vertex -1158.8786934665263 107.42301950600861 79.47011958974679
    vertex -1159.2684364107831 106.8477095899292 77.97351569429955
    vertex -1158.7331948217882 106.94082200970675 77.96884618244162
  endloop
endfacet
facet normal 0.8622761025088314 -0.3961813804431034 0.3154682818166924
  outer loop
    vertex -1157.7182876666132 108.56273853804778 79.46000357234662
    vertex -1157.4662342264623 107.9151608894453 77.95779909703047
    vertex -1157.2388094202904 108.40856672747363 77.95581864610453
  endloop
endfacet
facet normal 0.8622761025088314 -0.3961813804431034 0.3154682818166924
  outer loop
    vertex -1157.4662342264623 107.9151608894453 77.95779909703047
    vertex -1157.7182876666132 108.56273853804778 79.46000357234662
    vertex -1157.8948853929176 108.17960377536458 79.46154141307943
  endloop
endfacet
facet normal -0.15990644927471528 0.9350618379439268 0.3163689091887483
  outer loop
    vertex -1159.8897580371358 110.77379107860958 79.47896844887215
    vertex -1159.5000150928781 111.34910083267347 77.97557234431942
    vertex -1160.0352566818742 111.25598841289553 77.98024185617736
  endloop
endfacet
facet normal -0.15990644927471528 0.9350618379439268 0.3163689091887483
  outer loop
    vertex -1159.5000150928781 111.34910083267347 77.97557234431942
    vertex -1159.8897580371358 110.77379107860958 79.47896844887215
    vertex -1159.4741373789022 110.84609384056549 79.47534252437016
  endloop
endfacet
facet normal 0.6783449188639348 0.6634939384351265 0.315632642024437
  outer loop
    vertex -1157.9784648610685 110.85986063740322 77.96229212661906
    vertex -1157.9970366442374 110.16520428042621 79.46244861822953
    vertex -1157.597785911855 110.47224256569255 77.95896740740314
  endloop
endfacet
facet normal 0.6783449188639348 0.6634939384351265 0.315632642024437
  outer loop
    vertex -1157.9970366442374 110.16520428042621 79.46244861822953
    vertex -1157.9784648610685 110.85986063740322 77.96229212661906
    vertex -1158.2926378058457 110.46619374279041 79.46503029726456
  endloop
endfacet
facet normal 0.5001723269075133 0.8062902814001026 0.3157904772403165
  outer loop
    vertex -1158.2926378058457 110.46619374279041 79.46503029726456
    vertex -1158.4408415235189 111.14510932237825 77.96632888130435
    vertex -1158.6516780911127 110.68769231212347 79.46816487924379
  endloop
endfacet
facet normal 0.5001723269075133 0.8062902814001026 0.3157904772403165
  outer loop
    vertex -1158.4408415235189 111.14510932237825 77.96632888130435
    vertex -1158.2926378058457 110.46619374279041 79.46503029726456
    vertex -1157.9784648610685 110.85986063740322 77.96229212661906
  endloop
endfacet
facet normal 0.8171846722337062 0.4823517465390087 0.3155091188492944
  outer loop
    vertex -1157.597785911855 110.47224256569255 77.95896740740314
    vertex -1157.7820538713365 109.80221633852805 79.46056987994031
    vertex -1157.3209283526955 110.00478206064075 77.95654794425249
  endloop
endfacet
facet normal 0.8171846722337062 0.4823517465390087 0.3155091188492944
  outer loop
    vertex -1157.7820538713365 109.80221633852805 79.46056987994031
    vertex -1157.597785911855 110.47224256569255 77.95896740740314
    vertex -1157.9970366442374 110.16520428042621 79.46244861822953
  endloop
endfacet
facet normal 0.06856124822915342 0.9462219640836994 0.3161698118525024
  outer loop
    vertex -1159.4741373789022 110.84609384056549 79.47534252437016
    vertex -1158.9580442482588 111.31141100388416 77.97084306994967
    vertex -1159.5000150928781 111.34910083267347 77.97557234431942
  endloop
endfacet
facet normal 0.06856124822915342 0.9462219640836994 0.3161698118525024
  outer loop
    vertex -1158.9580442482588 111.31141100388416 77.97084306994967
    vertex -1159.4741373789022 110.84609384056549 79.47534252437016
    vertex -1159.0532913837183 110.81682729668637 79.47167019365646
  endloop
endfacet
facet normal -0.740252451264192 0.5929756602838957 0.3168693338084846
  outer loop
    vertex -1161.3022172772012 110.28164953315736 77.99128894158844
    vertex -1160.610413336314 110.34694416748 79.4852531205952
    vertex -1160.9633257751902 110.70628951211786 77.98833533664491
  endloop
endfacet
facet normal -0.740252451264192 0.5929756602838957 0.3168693338084846
  outer loop
    vertex -1160.610413336314 110.34694416748 79.4852531205952
    vertex -1161.3022172772012 110.28164953315736 77.99128894158844
    vertex -1160.8735661107457 110.01720680925476 79.48754662553952
  endloop
endfacet
facet normal -0.8608557548910761 0.3980652156708098 0.31697232267796976
  outer loop
    vertex -1161.529642083373 109.78824369512904 77.99326939251439
    vertex -1160.8735661107457 110.01720680925476 79.48754662553952
    vertex -1161.3022172772012 110.28164953315736 77.99128894158844
  endloop
endfacet
facet normal -0.8608557548910761 0.3980652156708098 0.31697232267796976
  outer loop
    vertex -1160.8735661107457 110.01720680925476 79.48754662553952
    vertex -1161.529642083373 109.78824369512904 77.99326939251439
    vertex -1161.0501638370495 109.63407204657248 79.48908446627236
  endloop
endfacet
facet normal -0.9471502630357537 -0.04887197082573185 0.31704559561506546
  outer loop
    vertex -1161.1082679991919 108.79848512774768 79.48958477078165
    vertex -1161.6323830906267 109.25474695188184 77.9941615928136
    vertex -1161.604469365069 108.71216419495101 77.9939136910478
  endloop
endfacet
facet normal -0.9471502630357537 -0.04887197082573185 0.31704559561506546
  outer loop
    vertex -1161.6323830906267 109.25474695188184 77.9941615928136
    vertex -1161.1082679991919 108.79848512774768 79.48958477078165
    vertex -1161.129943297279 109.21980627920048 79.48977726908001
  endloop
endfacet
facet normal -0.5764917842937979 0.7532197686248028 0.3167289105758293
  outer loop
    vertex -1160.610413336314 110.34694416748 79.4852531205952
    vertex -1160.5326627196168 111.03748509993562 77.98458023046736
    vertex -1160.9633257751902 110.70628951211786 77.98833533664491
  endloop
endfacet
facet normal -0.5764917842937979 0.7532197686248028 0.3167289105758293
  outer loop
    vertex -1160.5326627196168 111.03748509993562 77.98458023046736
    vertex -1160.610413336314 110.34694416748 79.4852531205952
    vertex -1160.2759989964827 110.60412098453332 79.48233724161011
  endloop
endfacet
facet normal 0.29292179603218016 0.9024177462975198 0.31597315167049705
  outer loop
    vertex -1158.6516780911127 110.68769231212347 79.46816487924379
    vertex -1158.9580442482588 111.31141100388416 77.97084306994967
    vertex -1159.0532913837183 110.81682729668637 79.47167019365646
  endloop
endfacet
facet normal 0.29292179603218016 0.9024177462975198 0.31597315167049705
  outer loop
    vertex -1158.9580442482588 111.31141100388416 77.97084306994967
    vertex -1158.6516780911127 110.68769231212347 79.46816487924379
    vertex -1158.4408415235189 111.14510932237825 77.96632888130435
  endloop
endfacet
facet normal -0.37919128672794566 0.8694851528640835 0.3165588997619976
  outer loop
    vertex -1160.2759989964827 110.60412098453332 79.48233724161011
    vertex -1160.0352566818742 111.25598841289553 77.98024185617736
    vertex -1160.5326627196168 111.03748509993562 77.98458023046736
  endloop
endfacet
facet normal -0.37919128672794566 0.8694851528640835 0.3165588997619976
  outer loop
    vertex -1160.0352566818742 111.25598841289553 77.98024185617736
    vertex -1160.2759989964827 110.60412098453332 79.48233724161011
    vertex -1159.8897580371358 110.77379107860958 79.47896844887215
  endloop
endfacet
facet normal 0.9319322695562361 -0.17894439968299558 0.31540632013619374
  outer loop
    vertex -1157.6385082063846 108.97700430541853 79.45931076953893
    vertex -1157.2388094202904 108.40856672747363 77.95581864610453
    vertex -1157.1360684130368 108.94206347072054 77.95492644580527
  endloop
endfacet
facet normal 0.9319322695562361 -0.17894439968299558 0.31540632013619374
  outer loop
    vertex -1157.2388094202904 108.40856672747363 77.95581864610453
    vertex -1157.6385082063846 108.97700430541853 79.45931076953893
    vertex -1157.7182876666132 108.56273853804778 79.46000357234662
  endloop
endfacet
facet normal 0.9087225957069489 0.27336570957517303 0.31542738131000486
  outer loop
    vertex -1157.3209283526955 110.00478206064075 77.95654794425249
    vertex -1157.660183504472 109.3983254568706 79.45950326783729
    vertex -1157.1639821385945 109.48464622765138 77.95517434757113
  endloop
endfacet
facet normal 0.9087225957069489 0.27336570957517303 0.31542738131000486
  outer loop
    vertex -1157.660183504472 109.3983254568706 79.45950326783729
    vertex -1157.3209283526955 110.00478206064075 77.95654794425249
    vertex -1157.7820538713365 109.80221633852805 79.46056987994031
  endloop
endfacet
facet normal 0.9477154091325671 0.04861208943094478 0.3153924032912787
  outer loop
    vertex -1157.1639821385945 109.48464622765138 77.95517434757113
    vertex -1157.6385082063846 108.97700430541853 79.45931076953893
    vertex -1157.1360684130368 108.94206347072054 77.95492644580527
  endloop
endfacet
facet normal 0.9477154091325671 0.04861208943094478 0.3153924032912787
  outer loop
    vertex -1157.6385082063846 108.97700430541853 79.45931076953893
    vertex -1157.1639821385945 109.48464622765138 77.95517434757113
    vertex -1157.660183504472 109.3983254568706 79.45950326783729
  endloop
endfacet
endsolid pitft-case
