solid pitft-case
facet normal -0.5545118752291115 0.016455946982108564 -0.8320130900645833
  outer loop
    vertex -1279.07382482915 139.20881896347746 78.31964424122668
    vertex -1276.0736691240177 139.31405992378836 76.32221157314207
    vertex -1276.0738454717657 139.20905663565367 76.32025229913356
  endloop
endfacet
facet normal -0.7071545422164374 0.52500195299904 0.47360891331335264
  outer loop
    vertex -1279.0738131904843 140.40357469130177 79.39893564593828
    vertex -1276.073695589576 143.27401064049832 80.69655123572844
    vertex -1276.073664641977 143.67272701209325 80.25461489719916
  endloop
endfacet
facet normal 0.5545225195682998 0.01459389536164805 -0.8320407402944869
  outer loop
    vertex -1201.2946249791933 139.20497574347098 76.32301869310487
    vertex -1201.294448631446 139.3099790316049 76.3249779671135
    vertex -1198.2946043365814 139.20473907875663 78.32241063519794
  endloop
endfacet
facet normal 0.4603313198013269 0.594716663324599 -0.6590957186737175
  outer loop
    vertex -1198.2946043365814 139.20473907875663 78.32241063519794
    vertex -1201.2944441494049 143.66864611990954 80.25738129116982
    vertex -1198.2945926979141 140.39949480658157 79.40170203990974
  endloop
endfacet
facet normal 0.4603313198013269 0.594716663324599 -0.6590957186737175
  outer loop
    vertex -1201.2944441494049 143.66864611990954 80.25738129116982
    vertex -1198.2946043365814 139.20473907875663 78.32241063519794
    vertex -1201.2944457918027 141.38380167623566 78.19024838721964
  endloop
endfacet
facet normal 0.4603313198013269 0.594716663324599 -0.6590957186737175
  outer loop
    vertex -1201.2944457918027 141.38380167623566 78.19024838721964
    vertex -1198.2946043365814 139.20473907875663 78.32241063519794
    vertex -1201.294448631446 139.3099790316049 76.3249779671135
  endloop
endfacet
facet normal 0.7071704146102887 0.5249409066373532 0.4736528784232883
  outer loop
    vertex -1198.2945926979141 140.39949480658157 79.40170203990974
    vertex -1201.2944441494049 143.66864611990954 80.25738129116982
    vertex -1201.2944750970069 143.2699297483149 80.69931762969962
  endloop
endfacet
facet normal -0.4599171974608463 0.5948450382274763 -0.6592689526861654
  outer loop
    vertex -1276.0736662847414 141.38378912002221 78.19024838721987
    vertex -1279.0738131904843 140.40357469130177 79.39893564593828
    vertex -1276.073664641977 143.67272701209325 80.25461489719916
  endloop
endfacet
facet normal -0.4599171974608463 0.5948450382274763 -0.6592689526861654
  outer loop
    vertex -1279.0738131904843 140.40357469130177 79.39893564593828
    vertex -1276.0736662847414 141.38378912002221 78.19024838721987
    vertex -1276.0736691240177 139.31405992378836 76.32221157314207
  endloop
endfacet
facet normal -0.4599171974608463 0.5948450382274763 -0.6592689526861654
  outer loop
    vertex -1279.0738131904843 140.40357469130177 79.39893564593828
    vertex -1276.0736691240177 139.31405992378836 76.32221157314207
    vertex -1279.07382482915 139.20881896347746 78.31964424122668
  endloop
endfacet
facet normal 1.5737832572201304e-05 0.7424802048765858 0.6698680057434778
  outer loop
    vertex -1276.073695589576 143.27401064049832 80.69655123572844
    vertex -1201.2944441494049 143.66864611990954 80.25738129116982
    vertex -1276.073664641977 143.67272701209325 80.25461489719916
  endloop
endfacet
facet normal 1.5737832572201304e-05 0.7424802048765858 0.6698680057434778
  outer loop
    vertex -1201.2944441494049 143.66864611990954 80.25738129116982
    vertex -1276.073695589576 143.27401064049832 80.69655123572844
    vertex -1201.2944750970069 143.2699297483149 80.69931762969962
  endloop
endfacet
facet normal -5.393930334231017e-05 -0.4119268005283121 0.9112169379994316
  outer loop
    vertex -1201.2944750970069 143.2699297483149 80.69931762969962
    vertex -1279.0738131904843 140.40357469130177 79.39893564593828
    vertex -1198.2945926979141 140.39949480658157 79.40170203990974
  endloop
endfacet
facet normal -5.393930334231017e-05 -0.4119268005283121 0.9112169379994316
  outer loop
    vertex -1279.0738131904843 140.40357469130177 79.39893564593828
    vertex -1201.2944750970069 143.2699297483149 80.69931762969962
    vertex -1276.073695589576 143.27401064049832 80.69655123572844
  endloop
endfacet
facet normal 3.196038264979631e-05 0.6703162245837162 -0.7420755743442624
  outer loop
    vertex -1201.2944457918027 141.38380167623566 78.19024838721964
    vertex -1276.073664641977 143.67272701209325 80.25461489719916
    vertex -1201.2944441494049 143.66864611990954 80.25738129116982
  endloop
endfacet
facet normal 3.196038264979631e-05 0.6703162245837162 -0.7420755743442624
  outer loop
    vertex -1276.073664641977 143.67272701209325 80.25461489719916
    vertex -1201.2944457918027 141.38380167623566 78.19024838721964
    vertex -1276.0736662847414 141.38378912002221 78.19024838721987
  endloop
endfacet
facet normal -0.9999999996515401 2.0848207593104625e-06 -2.631679190601825e-05
  outer loop
    vertex -1278.7947284486017 139.61885924280426 76.32783676655748
    vertex -1278.7947695930845 141.517865946576 78.0417071911108
    vertex -1278.7947213062507 143.04473954239475 76.3278365817941
  endloop
endfacet
facet normal -2.362724325852885e-05 0.7457201182797707 0.666259337371386
  outer loop
    vertex -1278.7947695930845 141.517865946576 78.0417071911108
    vertex -1192.7947199313576 143.04939046606057 76.33201394867356
    vertex -1278.7947213062507 143.04473954239475 76.3278365817941
  endloop
endfacet
facet normal -2.362724325852885e-05 0.7457201182797707 0.666259337371386
  outer loop
    vertex -1192.7947199313576 143.04939046606057 76.33201394867356
    vertex -1278.7947695930845 141.517865946576 78.0417071911108
    vertex -1201.2944398924303 141.5175482677415 78.0415478518263
  endloop
endfacet
facet normal -2.362724325852885e-05 0.7457201182797707 0.666259337371386
  outer loop
    vertex -1201.2944398924303 141.5175482677415 78.0415478518263
    vertex -1278.7947695930845 141.517865946576 78.0417071911108
    vertex -1276.0736557462808 141.51779532585562 78.04178176886491
  endloop
endfacet
facet normal -2.362724325852885e-05 0.7457201182797707 0.666259337371386
  outer loop
    vertex -1192.79472549538 141.51734826469266 78.04175976710638
    vertex -1192.7947199313576 143.04939046606057 76.33201394867356
    vertex -1201.2944398924303 141.5175482677415 78.0415478518263
  endloop
endfacet
facet normal 0.9999999999968269 -1.1055309137578906e-06 2.263671222044308e-06
  outer loop
    vertex -1192.7947237265912 139.61643932833016 76.33201413407963
    vertex -1192.7947199313576 143.04939046606057 76.33201394867356
    vertex -1192.79472549538 141.51734826469266 78.04175976710638
  endloop
endfacet
facet normal -2.5676438333690386e-05 -0.6687117088457657 0.7435217883783207
  outer loop
    vertex -1192.79472549538 141.51734826469266 78.04175976710638
    vertex -1201.2944424952964 139.61653562395918 76.33190548506224
    vertex -1192.7947237265912 139.61643932833016 76.33201413407963
  endloop
endfacet
facet normal -2.5676438333690386e-05 -0.6687117088457657 0.7435217883783207
  outer loop
    vertex -1201.2944424952964 139.61653562395918 76.33190548506224
    vertex -1192.79472549538 141.51734826469266 78.04175976710638
    vertex -1201.2944398924303 141.5175482677415 78.0415478518263
  endloop
endfacet
facet normal 0.9999999995641177 -2.048941769049291e-05 2.1259079371181368e-05
  outer loop
    vertex -1201.2944457918027 141.38380167623566 78.19024838721964
    vertex -1201.2944424952964 139.61653562395918 76.33190548506224
    vertex -1201.2944398924303 141.5175482677415 78.0415478518263
  endloop
endfacet
facet normal 0.9999999995641177 -2.048941769049291e-05 2.1259079371181368e-05
  outer loop
    vertex -1201.2944424952964 139.61653562395918 76.33190548506224
    vertex -1201.2944457918027 141.38380167623566 78.19024838721964
    vertex -1201.294448631446 139.3099790316049 76.3249779671135
  endloop
endfacet
facet normal -5.926925153211048e-05 -0.6703400239651028 0.742054074011875
  outer loop
    vertex -1279.0738131904843 140.40357469130177 79.39893564593828
    vertex -1198.2946043365814 139.20473907875663 78.32241063519794
    vertex -1198.2945926979141 140.39949480658157 79.40170203990974
  endloop
endfacet
facet normal -5.926925153211048e-05 -0.6703400239651028 0.742054074011875
  outer loop
    vertex -1198.2946043365814 139.20473907875663 78.32241063519794
    vertex -1279.0738131904843 140.40357469130177 79.39893564593828
    vertex -1279.07382482915 139.20881896347746 78.31964424122668
  endloop
endfacet
facet normal -5.23787708612145e-05 -0.9999999915924113 -0.0001186239525288287
  outer loop
    vertex -1201.2946249791933 139.20497574347098 76.32301869310487
    vertex -1279.07382482915 139.20881896347746 78.31964424122668
    vertex -1276.0738454717657 139.20905663565367 76.32025229913356
  endloop
endfacet
facet normal -5.23787708612145e-05 -0.9999999915924113 -0.0001186239525288287
  outer loop
    vertex -1279.07382482915 139.20881896347746 78.31964424122668
    vertex -1201.2946249791933 139.20497574347098 76.32301869310487
    vertex -1198.2946043365814 139.20473907875663 78.32241063519794
  endloop
endfacet
facet normal 3.80058128479041e-05 0.01865585693761601 -0.9998259636344125
  outer loop
    vertex -1201.2946249791933 139.20497574347098 76.32301869310487
    vertex -1276.0736691240177 139.31405992378836 76.32221157314207
    vertex -1201.294448631446 139.3099790316049 76.3249779671135
  endloop
endfacet
facet normal 3.80058128479041e-05 0.01865585693761601 -0.9998259636344125
  outer loop
    vertex -1276.0736691240177 139.31405992378836 76.32221157314207
    vertex -1201.2946249791933 139.20497574347098 76.32301869310487
    vertex -1276.0738454717657 139.20905663565367 76.32025229913356
  endloop
endfacet
facet normal 4.793374636927937e-05 0.0007051369570866608 -0.9999997502420828
  outer loop
    vertex -1276.0736691240177 139.31405992378836 76.32221157314207
    vertex -1276.0734077875518 139.61886266341736 76.327898454995
    vertex -1201.294448631446 139.3099790316049 76.3249779671135
  endloop
endfacet
facet normal 4.793374636927937e-05 0.0007051369570866608 -0.9999997502420828
  outer loop
    vertex -1192.7947237265912 139.61643932833016 76.33201413407963
    vertex -1278.7947213062507 143.04473954239475 76.3278365817941
    vertex -1192.7947199313576 143.04939046606057 76.33201394867356
  endloop
endfacet
facet normal 4.793374636927937e-05 0.0007051369570866608 -0.9999997502420828
  outer loop
    vertex -1278.7947213062507 143.04473954239475 76.3278365817941
    vertex -1192.7947237265912 139.61643932833016 76.33201413407963
    vertex -1201.2944424952964 139.61653562395918 76.33190548506224
  endloop
endfacet
facet normal 4.793374636927937e-05 0.0007051369570866608 -0.9999997502420828
  outer loop
    vertex -1278.7947213062507 143.04473954239475 76.3278365817941
    vertex -1201.2944424952964 139.61653562395918 76.33190548506224
    vertex -1201.294448631446 139.3099790316049 76.3249779671135
  endloop
endfacet
facet normal 4.793374636927937e-05 0.0007051369570866608 -0.9999997502420828
  outer loop
    vertex -1278.7947213062507 143.04473954239475 76.3278365817941
    vertex -1201.294448631446 139.3099790316049 76.3249779671135
    vertex -1276.0734077875518 139.61886266341736 76.327898454995
  endloop
endfacet
facet normal 4.793374636927937e-05 0.0007051369570866608 -0.9999997502420828
  outer loop
    vertex -1278.7947213062507 143.04473954239475 76.3278365817941
    vertex -1276.0734077875518 139.61886266341736 76.327898454995
    vertex -1278.7947284486017 139.61885924280426 76.32783676655748
  endloop
endfacet
facet normal 2.211815138966576e-06 0.7429186284495111 0.669381738246425
  outer loop
    vertex -1276.0736557462808 141.51779532585562 78.04178176886491
    vertex -1201.2944457918027 141.38380167623566 78.19024838721964
    vertex -1201.2944398924303 141.5175482677415 78.0415478518263
  endloop
endfacet
facet normal 2.211815138966576e-06 0.7429186284495111 0.669381738246425
  outer loop
    vertex -1201.2944457918027 141.38380167623566 78.19024838721964
    vertex -1276.0736557462808 141.51779532585562 78.04178176886491
    vertex -1276.0736662847414 141.38378912002221 78.19024838721987
  endloop
endfacet
facet normal -1.8811262927709996e-05 -0.6699967530205265 0.7423640283500327
  outer loop
    vertex -1276.0736557462808 141.51779532585562 78.04178176886491
    vertex -1278.7947284486017 139.61885924280426 76.32783676655748
    vertex -1276.0734077875518 139.61886266341736 76.327898454995
  endloop
endfacet
facet normal -1.8811262927709996e-05 -0.6699967530205265 0.7423640283500327
  outer loop
    vertex -1278.7947284486017 139.61885924280426 76.32783676655748
    vertex -1276.0736557462808 141.51779532585562 78.04178176886491
    vertex -1278.7947695930845 141.517865946576 78.0417071911108
  endloop
endfacet
facet normal -0.999999750633893 0.00043978075896691326 -0.0005525622462879878
  outer loop
    vertex -1276.0734077875518 139.61886266341736 76.327898454995
    vertex -1276.0736662847414 141.38378912002221 78.19024838721987
    vertex -1276.0736557462808 141.51779532585562 78.04178176886491
  endloop
endfacet
facet normal -0.999999750633893 0.00043978075896691326 -0.0005525622462879878
  outer loop
    vertex -1276.0736662847414 141.38378912002221 78.19024838721987
    vertex -1276.0734077875518 139.61886266341736 76.327898454995
    vertex -1276.0736691240177 139.31405992378836 76.32221157314207
  endloop
endfacet
endsolid pitft-case
