solid pitft-case
facet normal -0.7071545422163382 0.5250019529986562 0.47360891331392607
  outer loop
    vertex -1279.17356915175 140.40357698918456 79.39893342523436
    vertex -1276.1734515508415 143.27401293838122 80.69654901502449
    vertex -1276.1734206032427 143.67272930997612 80.25461267649527
  endloop
endfacet
facet normal 0.7071704146102894 0.5249409066373538 0.4736528784232862
  outer loop
    vertex -1198.2945926979187 140.39949480658098 79.40170203990982
    vertex -1201.2944441494096 143.6686461199089 80.2573812911698
    vertex -1201.2944750970125 143.26992974831427 80.6993176296997
  endloop
endfacet
facet normal 1.5719784942743467e-05 0.7424802048773983 0.6698680057430009
  outer loop
    vertex -1276.1734515508415 143.27401293838122 80.69654901502449
    vertex -1201.2944441494096 143.6686461199089 80.2573812911698
    vertex -1276.1734206032427 143.67272930997612 80.25461267649527
  endloop
endfacet
facet normal 1.5719784942743467e-05 0.7424802048773983 0.6698680057430009
  outer loop
    vertex -1201.2944441494096 143.6686461199089 80.2573812911698
    vertex -1276.1734515508415 143.27401293838122 80.69654901502449
    vertex -1201.2944750970125 143.26992974831427 80.6993176296997
  endloop
endfacet
facet normal -5.390849786607047e-05 -0.4119268005333306 0.911216937998986
  outer loop
    vertex -1201.2944750970125 143.26992974831427 80.6993176296997
    vertex -1279.17356915175 140.40357698918456 79.39893342523436
    vertex -1198.2945926979187 140.39949480658098 79.40170203990982
  endloop
endfacet
facet normal -5.390849786607047e-05 -0.4119268005333306 0.911216937998986
  outer loop
    vertex -1279.17356915175 140.40357698918456 79.39893342523436
    vertex -1201.2944750970125 143.26992974831427 80.6993176296997
    vertex -1276.1734515508415 143.27401293838122 80.69654901502449
  endloop
endfacet
facet normal 3.196038265016906e-05 0.6703162245837073 -0.7420755743442704
  outer loop
    vertex -1201.2944457918072 141.38380167623507 78.19024838721973
    vertex -1276.1734206032427 143.67272930997612 80.25461267649527
    vertex -1201.2944441494096 143.6686461199089 80.2573812911698
  endloop
endfacet
facet normal 3.196038265016906e-05 0.6703162245837073 -0.7420755743442704
  outer loop
    vertex -1276.1734206032427 143.67272930997612 80.25461267649527
    vertex -1201.2944457918072 141.38380167623507 78.19024838721973
    vertex -1276.173422246007 141.38379141790506 78.19024616651599
  endloop
endfacet
facet normal -0.9999999996515401 2.0848207066299425e-06 -2.631679184764673e-05
  outer loop
    vertex -1278.8944844098673 139.61886154068708 76.3278345458536
    vertex -1278.8945255543501 141.51786824445884 78.04170497040694
    vertex -1278.8944772675163 143.04474184027754 76.32783436109024
  endloop
endfacet
facet normal -2.3594620199475352e-05 0.7457201046245809 0.6662593526563048
  outer loop
    vertex -1278.8945255543501 141.51786824445884 78.04170497040694
    vertex -1192.7947199313621 143.04939046606017 76.33201394867355
    vertex -1278.8944772675163 143.04474184027754 76.32783436109024
  endloop
endfacet
facet normal -2.3594620199475352e-05 0.7457201046245809 0.6662593526563048
  outer loop
    vertex -1192.7947199313621 143.04939046606017 76.33201394867355
    vertex -1278.8945255543501 141.51786824445884 78.04170497040694
    vertex -1201.2944398924349 141.5175482677409 78.04154785182638
  endloop
endfacet
facet normal -2.3594620199475352e-05 0.7457201046245809 0.6662593526563048
  outer loop
    vertex -1201.2944398924349 141.5175482677409 78.04154785182638
    vertex -1278.8945255543501 141.51786824445884 78.04170497040694
    vertex -1276.1734117075464 141.51779762373843 78.04177954816097
  endloop
endfacet
facet normal -2.3594620199475352e-05 0.7457201046245809 0.6662593526563048
  outer loop
    vertex -1192.7947254953847 141.51734826469206 78.04175976710636
    vertex -1192.7947199313621 143.04939046606017 76.33201394867355
    vertex -1201.2944398924349 141.5175482677409 78.04154785182638
  endloop
endfacet
facet normal 0.9999999999968269 -1.1055309137578902e-06 2.263671222044308e-06
  outer loop
    vertex -1192.794723726595 139.61643932832956 76.33201413407961
    vertex -1192.7947199313621 143.04939046606017 76.33201394867355
    vertex -1192.7947254953847 141.51734826469206 78.04175976710636
  endloop
endfacet
facet normal -2.567643833369039e-05 -0.6687117088457669 0.7435217883783197
  outer loop
    vertex -1192.7947254953847 141.51734826469206 78.04175976710636
    vertex -1201.2944424953012 139.61653562395858 76.33190548506221
    vertex -1192.794723726595 139.61643932832956 76.33201413407961
  endloop
endfacet
facet normal -2.567643833369039e-05 -0.6687117088457669 0.7435217883783197
  outer loop
    vertex -1201.2944424953012 139.61653562395858 76.33190548506221
    vertex -1192.7947254953847 141.51734826469206 78.04175976710636
    vertex -1201.2944398924349 141.5175482677409 78.04154785182638
  endloop
endfacet
facet normal -5.9235568918267115e-05 -0.6703400239666671 0.7420540740131514
  outer loop
    vertex -1279.17356915175 140.40357698918456 79.39893342523436
    vertex -1198.294604336586 139.20473907875603 78.32241063519804
    vertex -1198.2945926979187 140.39949480658098 79.40170203990982
  endloop
endfacet
facet normal -5.9235568918267115e-05 -0.6703400239666671 0.7420540740131514
  outer loop
    vertex -1198.294604336586 139.20473907875603 78.32241063519804
    vertex -1279.17356915175 140.40357698918456 79.39893342523436
    vertex -1279.1735807904156 139.2088212613603 78.3196420205228
  endloop
endfacet
facet normal -5.234133636504381e-05 -0.9999999915943717 -0.00011862394790311344
  outer loop
    vertex -1201.2946249791978 139.20497574347038 76.32301869310487
    vertex -1279.1735807904156 139.2088212613603 78.3196420205228
    vertex -1276.1736014330313 139.20905893353645 76.3202500784296
  endloop
endfacet
facet normal -5.234133636504381e-05 -0.9999999915943717 -0.00011862394790311344
  outer loop
    vertex -1279.1735807904156 139.2088212613603 78.3196420205228
    vertex -1201.2946249791978 139.20497574347038 76.32301869310487
    vertex -1198.294604336586 139.20473907875603 78.32241063519804
  endloop
endfacet
facet normal 2.211815138249672e-06 0.7429186284498861 0.6693817382460088
  outer loop
    vertex -1276.1734117075464 141.51779762373843 78.04177954816097
    vertex -1201.2944457918072 141.38380167623507 78.19024838721973
    vertex -1201.2944398924349 141.5175482677409 78.04154785182638
  endloop
endfacet
facet normal 2.211815138249672e-06 0.7429186284498861 0.6693817382460088
  outer loop
    vertex -1201.2944457918072 141.38380167623507 78.19024838721973
    vertex -1276.1734117075464 141.51779762373843 78.04177954816097
    vertex -1276.173422246007 141.38379141790506 78.19024616651599
  endloop
endfacet
facet normal -2.6859385788117626e-05 -0.670001691762596 0.7423595707700096
  outer loop
    vertex -1276.1734117075464 141.51779762373843 78.04177954816097
    vertex -1278.8944844098673 139.61886154068708 76.3278345458536
    vertex -1276.1731637488174 139.61886496130015 76.32789623429112
  endloop
endfacet
facet normal -2.6859385788117626e-05 -0.670001691762596 0.7423595707700096
  outer loop
    vertex -1278.8944844098673 139.61886154068708 76.3278345458536
    vertex -1276.1734117075464 141.51779762373843 78.04177954816097
    vertex -1278.8945255543501 141.51786824445884 78.04170497040694
  endloop
endfacet
facet normal 0.4497416579630671 0.5911238028741046 -0.6695558906979227
  outer loop
    vertex -1198.294604336586 139.20473907875603 78.32241063519804
    vertex -1201.2944441494096 143.6686461199089 80.2573812911698
    vertex -1198.2945926979187 140.39949480658098 79.40170203990982
  endloop
endfacet
facet normal 0.4497416579630671 0.5911238028741046 -0.6695558906979227
  outer loop
    vertex -1201.2944441494096 143.6686461199089 80.2573812911698
    vertex -1198.294604336586 139.20473907875603 78.32241063519804
    vertex -1201.2946249791978 139.20497574347038 76.32301869310487
  endloop
endfacet
facet normal 0.9999999351359362 -0.0002513158374734327 0.00025800866882584144
  outer loop
    vertex -1201.2946249791978 139.20497574347038 76.32301869310487
    vertex -1201.2944457918072 141.38380167623507 78.19024838721973
    vertex -1201.2944441494096 143.6686461199089 80.2573812911698
  endloop
endfacet
facet normal 0.9999999351359362 -0.0002513158374734327 0.00025800866882584144
  outer loop
    vertex -1201.2944457918072 141.38380167623507 78.19024838721973
    vertex -1201.2946249791978 139.20497574347038 76.32301869310487
    vertex -1201.2944424953012 139.61653562395858 76.33190548506221
  endloop
endfacet
facet normal 0.9999999351359362 -0.0002513158374734327 0.00025800866882584144
  outer loop
    vertex -1201.2944424953012 139.61653562395858 76.33190548506221
    vertex -1201.2946249791978 139.20497574347038 76.32301869310487
    vertex -1201.2944486314516 139.3099790316043 76.32497796711348
  endloop
endfacet
facet normal 0.9999999351359362 -0.0002513158374734327 0.00025800866882584144
  outer loop
    vertex -1201.2944424953012 139.61653562395858 76.33190548506221
    vertex -1201.2944398924349 141.5175482677409 78.04154785182638
    vertex -1201.2944457918072 141.38380167623507 78.19024838721973
  endloop
endfacet
facet normal 0.44974165796306775 0.5911238028741034 -0.6695558906979232
  outer loop
    vertex -1198.294604336586 139.20473907875603 78.32241063519804
    vertex -1201.2944441494096 143.6686461199089 80.2573812911698
    vertex -1198.2945926979187 140.39949480658098 79.40170203990982
  endloop
endfacet
facet normal 0.44974165796306775 0.5911238028741034 -0.6695558906979232
  outer loop
    vertex -1201.2944441494096 143.6686461199089 80.2573812911698
    vertex -1198.294604336586 139.20473907875603 78.32241063519804
    vertex -1201.2946249791978 139.20497574347038 76.32301869310487
  endloop
endfacet
facet normal 0.9999999351359362 -0.00025131583747343235 0.00025800866882584144
  outer loop
    vertex -1201.2946249791978 139.20497574347038 76.32301869310487
    vertex -1201.2944457918072 141.38380167623507 78.19024838721973
    vertex -1201.2944441494096 143.6686461199089 80.2573812911698
  endloop
endfacet
facet normal 0.9999999351359362 -0.00025131583747343235 0.00025800866882584144
  outer loop
    vertex -1201.2944457918072 141.38380167623507 78.19024838721973
    vertex -1201.2946249791978 139.20497574347038 76.32301869310487
    vertex -1201.2944424953012 139.61653562395858 76.33190548506221
  endloop
endfacet
facet normal 0.9999999351359362 -0.00025131583747343235 0.00025800866882584144
  outer loop
    vertex -1201.2944424953012 139.61653562395858 76.33190548506221
    vertex -1201.2946249791978 139.20497574347038 76.32301869310487
    vertex -1201.2944486314516 139.3099790316043 76.32497796711348
  endloop
endfacet
facet normal 0.9999999351359362 -0.00025131583747343235 0.00025800866882584144
  outer loop
    vertex -1201.2944424953012 139.61653562395858 76.33190548506221
    vertex -1201.2944398924349 141.5175482677409 78.04154785182638
    vertex -1201.2944457918072 141.38380167623507 78.19024838721973
  endloop
endfacet
facet normal 0.9999999351359362 -0.0002513158374734293 0.0002580086688258379
  outer loop
    vertex -1201.2946249791978 139.20497574347038 76.32301869310487
    vertex -1201.2944457918072 141.38380167623507 78.19024838721973
    vertex -1201.2944441494096 143.6686461199089 80.2573812911698
  endloop
endfacet
facet normal 0.9999999351359362 -0.0002513158374734293 0.0002580086688258379
  outer loop
    vertex -1201.2944457918072 141.38380167623507 78.19024838721973
    vertex -1201.2946249791978 139.20497574347038 76.32301869310487
    vertex -1201.2944424953012 139.61653562395858 76.33190548506221
  endloop
endfacet
facet normal 0.9999999351359362 -0.0002513158374734293 0.0002580086688258379
  outer loop
    vertex -1201.2944424953012 139.61653562395858 76.33190548506221
    vertex -1201.2946249791978 139.20497574347038 76.32301869310487
    vertex -1201.2944486314516 139.3099790316043 76.32497796711348
  endloop
endfacet
facet normal 0.9999999351359362 -0.0002513158374734293 0.0002580086688258379
  outer loop
    vertex -1201.2944424953012 139.61653562395858 76.33190548506221
    vertex -1201.2944398924349 141.5175482677409 78.04154785182638
    vertex -1201.2944457918072 141.38380167623507 78.19024838721973
  endloop
endfacet
facet normal 3.7985404985973606e-05 0.018655856971839028 -0.9998259636345495
  outer loop
    vertex -1201.2946249791978 139.20497574347038 76.32301869310487
    vertex -1276.1734250852833 139.31406222167118 76.32220935243814
    vertex -1201.2944486314516 139.3099790316043 76.32497796711348
  endloop
endfacet
facet normal 3.7985404985973606e-05 0.018655856971839028 -0.9998259636345495
  outer loop
    vertex -1276.1734250852833 139.31406222167118 76.32220935243814
    vertex -1201.2946249791978 139.20497574347038 76.32301869310487
    vertex -1276.1736014330313 139.20905893353645 76.3202500784296
  endloop
endfacet
facet normal 4.79010474497027e-05 0.0007051557486171717 -0.9999997502303988
  outer loop
    vertex -1276.1734250852833 139.31406222167118 76.32220935243814
    vertex -1276.1731637488174 139.61886496130015 76.32789623429112
    vertex -1201.2944486314516 139.3099790316043 76.32497796711348
  endloop
endfacet
facet normal 4.79010474497027e-05 0.0007051557486171717 -0.9999997502303988
  outer loop
    vertex -1192.794723726595 139.61643932832956 76.33201413407961
    vertex -1278.8944772675163 143.04474184027754 76.32783436109024
    vertex -1192.7947199313621 143.04939046606017 76.33201394867355
  endloop
endfacet
facet normal 4.79010474497027e-05 0.0007051557486171717 -0.9999997502303988
  outer loop
    vertex -1278.8944772675163 143.04474184027754 76.32783436109024
    vertex -1192.794723726595 139.61643932832956 76.33201413407961
    vertex -1201.2944424953012 139.61653562395858 76.33190548506221
  endloop
endfacet
facet normal 4.79010474497027e-05 0.0007051557486171717 -0.9999997502303988
  outer loop
    vertex -1278.8944772675163 143.04474184027754 76.32783436109024
    vertex -1201.2944424953012 139.61653562395858 76.33190548506221
    vertex -1201.2944486314516 139.3099790316043 76.32497796711348
  endloop
endfacet
facet normal 4.79010474497027e-05 0.0007051557486171717 -0.9999997502303988
  outer loop
    vertex -1278.8944772675163 143.04474184027754 76.32783436109024
    vertex -1201.2944486314516 139.3099790316043 76.32497796711348
    vertex -1276.1731637488174 139.61886496130015 76.32789623429112
  endloop
endfacet
facet normal 4.79010474497027e-05 0.0007051557486171717 -0.9999997502303988
  outer loop
    vertex -1278.8944772675163 143.04474184027754 76.32783436109024
    vertex -1276.1731637488174 139.61886496130015 76.32789623429112
    vertex -1278.8944844098673 139.61886154068708 76.3278345458536
  endloop
endfacet
facet normal -6.379483501721979e-05 -0.6612274883633169 0.7501854467816332
  outer loop
    vertex -1276.1734206032427 143.67272930997612 80.25461267649527
    vertex -1201.2946249791978 139.20497574347038 76.32301869310487
    vertex -1201.2944441494096 143.6686461199089 80.2573812911698
  endloop
endfacet
facet normal -6.379483501721979e-05 -0.6612274883633169 0.7501854467816332
  outer loop
    vertex -1201.2946249791978 139.20497574347038 76.32301869310487
    vertex -1276.1734206032427 143.67272930997612 80.25461267649527
    vertex -1276.1736014330313 139.20905893353645 76.3202500784296
  endloop
endfacet
facet normal -0.4497324181546049 0.5911463368899564 -0.669542202136951
  outer loop
    vertex -1276.1736014330313 139.20905893353645 76.3202500784296
    vertex -1279.17356915175 140.40357698918456 79.39893342523436
    vertex -1276.1734206032427 143.67272930997612 80.25461267649527
  endloop
endfacet
facet normal -0.4497324181546049 0.5911463368899564 -0.669542202136951
  outer loop
    vertex -1279.17356915175 140.40357698918456 79.39893342523436
    vertex -1276.1736014330313 139.20905893353645 76.3202500784296
    vertex -1279.1735807904156 139.2088212613603 78.3196420205228
  endloop
endfacet
facet normal -0.9999995744534257 0.0006171962017597156 -0.0006856834665157657
  outer loop
    vertex -1276.1731637488174 139.61886496130015 76.32789623429112
    vertex -1276.173422246007 141.38379141790506 78.19024616651599
    vertex -1276.1734117075464 141.51779762373843 78.04177954816097
  endloop
endfacet
facet normal -0.9999995744534257 0.0006171962017597156 -0.0006856834665157657
  outer loop
    vertex -1276.173422246007 141.38379141790506 78.19024616651599
    vertex -1276.1736014330313 139.20905893353645 76.3202500784296
    vertex -1276.1734206032427 143.67272930997612 80.25461267649527
  endloop
endfacet
facet normal -0.9999995744534257 0.0006171962017597156 -0.0006856834665157657
  outer loop
    vertex -1276.1736014330313 139.20905893353645 76.3202500784296
    vertex -1276.173422246007 141.38379141790506 78.19024616651599
    vertex -1276.1734250852833 139.31406222167118 76.32220935243814
  endloop
endfacet
facet normal -0.9999995744534257 0.0006171962017597156 -0.0006856834665157657
  outer loop
    vertex -1276.1734250852833 139.31406222167118 76.32220935243814
    vertex -1276.173422246007 141.38379141790506 78.19024616651599
    vertex -1276.1731637488174 139.61886496130015 76.32789623429112
  endloop
endfacet
endsolid pitft-case
